<svg xmlns="http://www.w3.org/2000/svg" viewBox="0 0 942.25 942.25"><defs><style>.cls-1{fill:#fff;}.cls-2{fill:#111e52;}.cls-3{fill:#eea505;}.cls-4{fill:#383645;}</style></defs><g id="Layer_2" data-name="Layer 2"><g id="Layer_1-2" data-name="Layer 1"><g id="_ffffffff" data-name="#ffffffff"><path class="cls-1" d="M440.28,1c84.33-5.6,170.12,11.83,245.31,50.52a471.74,471.74,0,0,1,247.07,324.6c20,97.26,8.58,200.82-33,291.05A471.22,471.22,0,1,1,440.28,1m-3,18A453.68,453.68,0,0,0,57.55,285.09c-44.43,98-51.93,212-21.22,315.13A453.45,453.45,0,1,0,669.4,63.28C597.77,28.24,516.74,13,437.26,19Z"/><path class="cls-1" d="M399.7,36c85.36-14,174.82-2.45,253.55,33.5A440.52,440.52,0,0,1,912,465.23c-17.25,11.87-34.57,23.64-51.78,35.57-20.12-10.87-40.14-21.92-60.22-32.87a328.91,328.91,0,0,0-657.76-2c-20,11.62-39.95,23.4-60.09,34.82C65,490,47.61,479.42,30.28,468.81A438.33,438.33,0,0,1,80.62,266.28,441.46,441.46,0,0,1,399.7,36m89.12,74c2.8.21,5.6.47,8.4.73.63-6.81,1.28-13.62,1.9-20.43,2.74.26,5.49.52,8.24.83,3.41,7.2,6.81,14.4,10.36,21.54,3.18.26,6.36.56,9.55.85-4.1-7.93-8.12-15.91-12.29-23.8a46,46,0,0,0,4.83-2.38c8.46-4.9,8.79-19.58-.15-24.16-8-4.11-17.42-3.2-26.13-4.45C492,75.84,490.3,92.92,488.82,110M402.16,64c2.75,13.29,5.12,26.68,8.52,39.83-11-11.54-21.88-23.28-32.86-34.88-3.35.67-6.7,1.36-10,2,3.35,16.81,6.81,33.6,10.19,50.41,2.51-.47,5-1,7.52-1.42-2.72-13.39-5-26.91-8.7-40.08,11.19,11.53,22,23.41,33,35.08,3.39-.68,6.77-1.38,10.16-2-3.36-16.82-6.81-33.62-10.2-50.43L402.16,64m137.76,52.27c9.44,2.17,18.89,4.33,28.32,6.57.58-2.35,1.14-4.69,1.71-7-6.71-1.61-13.44-3.12-20.15-4.7q1.82-7.78,3.6-15.59,9.44,2.15,18.85,4.36c.54-2.31,1.08-4.63,1.63-6.94q-9.42-2.2-18.86-4.37c1-4.5,2.08-9,3.11-13.5,6.73,1.49,13.43,3.09,20.14,4.63q.79-3.51,1.58-7-14.19-3.23-28.34-6.55-5.82,25.07-11.59,50.16m57.82-30.07c-3.76,4.29-5,10.95-2.19,16.06,2.79,5.37,8.16,8.6,11.81,13.29,1.47,1.81,2.43,4.29,1.61,6.6a6.5,6.5,0,0,1-7.19,4.62c-6.71-.85-12.32-5.1-17.19-9.5-.94,2.54-1.88,5.08-2.79,7.62a38,38,0,0,0,17.94,8.86c4.84.92,10.38.11,14-3.53,3.83-4.09,5.6-10.64,2.87-15.78-3.1-6-9.46-9.43-13.13-15-2.68-3.85.4-10,5.24-9.75,5.8.28,10.51,4.19,14.77,7.76l4.93-5.57c-5.18-4.79-11.54-8.73-18.67-9.56-4.29-.53-9,.6-12,3.91M324.08,84.7c-7.42,2.12-14.82,6.85-17.4,14.48-3,8.89.15,18.51,4.58,26.34,3.86,6.87,11.24,12.11,19.34,11.68,7.68-.45,15.53-3.63,20.59-9.57s5.5-14.37,3.4-21.56c-2.12-7.43-5.85-14.95-12.5-19.28-5.27-3.49-12.07-3.92-18-2.09m326,14.23c-7.93,15.18-16,30.29-24,45.45l7.52,4q4.5-8.49,9-17c5.58,3,11.47,6.42,18,5.94,11.45-.48,19.25-16.6,11-25.26-5.9-6.18-14.29-9-21.57-13.13M248.9,122.82c1.24,2,2.26,4.23,3.69,6.17,4.48-2.22,8.67-5,13.06-7.37q11,19.14,22,38.27c2.45-1.4,4.89-2.8,7.35-4.18q-10.86-19.2-22-38.26c4.32-2.62,8.74-5.08,13.12-7.6-1.25-2.13-2.48-4.26-3.79-6.35-11.08,6.55-22.31,12.85-33.44,19.32m434.5,26.07c-3,4-6.45,8-7.35,13.12-1.21,5.65,1.09,11.57,5.13,15.56,4.63,4.61,10.76,8.36,17.49,8.25,5.57,0,10.66-3.29,13.89-7.68,6.67-9,13.3-18,20-27l-6.86-5.06c-6.55,8.85-13.06,17.74-19.64,26.57-2.53,3.49-6.83,6.45-11.32,5.14a16.45,16.45,0,0,1-10.2-8.52c-1.53-3.7.24-7.68,2.41-10.7,6.51-8.9,13.1-17.74,19.64-26.61q-3.43-2.55-6.89-5.06-8.13,11-16.27,22m-465.08-4.11c-3,3.51-4.54,8.49-3,13,1.73,4.95,6.14,9.14,11.47,9.76,6.48.87,12.53-2.38,18.91-2.77,5.45-.88,9.74,6.21,6,10.48-4.26,5.42-11.05,7.91-17.47,9.71q2.42,3.19,4.83,6.42c8.3-2.41,16.45-7.51,20.61-15.3,4-7.42-1-17.49-9.05-19.36-7.16-1.41-13.86,2.45-20.9,2.75-4.63.4-8.54-5.17-6.06-9.27,3.22-5,9.3-7,14.72-8.67-.66-2.38-1.33-4.76-2-7.14-6.81,1.7-13.48,5-18.06,10.42m-31.33,27q17.5,18.81,35,37.65c2.14-1.9,4.23-3.83,6.27-5.83q-17.55-18.75-35-37.62-3.17,2.86-6.28,5.8m528.65,32.84c4.19,4.28,8.42,8.53,12.62,12.8,3.36,3.41,7.44,6.55,12.32,7.21,6.52,1.08,13-3.6,15.15-9.59,1.34-3.7-.39-7.46-2.16-10.67,1.94.92,3.9,2,6.13,2,5.25,0,9.83-4.06,11.63-8.79,1.59-4.77-1-9.58-3.9-13.26-4.59-5.72-10.21-10.51-15.16-15.9-12.26,12-24.33,24.22-36.63,36.19M167,191.88q2.52,15.7,4.92,31.45c-6.18-5.23-12.26-10.57-18.41-15.84-1.85,2.14-3.71,4.29-5.55,6.45q19.46,16.81,38.92,33.62,2.82-3.19,5.59-6.44c-4.41-3.85-8.88-7.63-13.3-11.46-2.29-1.72-.82-5-1.14-7.41,9.43.91,18.83,2.07,28.27,2.92,2.08-2.49,4.2-4.94,6.31-7.41-11.61-1.26-23.21-2.57-34.81-3.83-1.44-9.8-3-19.58-4.45-29.37q-3.21,3.63-6.35,7.32m584.85,51.56c6.1,8.05,12.1,16.18,18.31,24.15,1.9-1.48,3.82-2.94,5.74-4.4-4.34-5.8-8.72-11.56-13.08-17.35,11.73-8.9,23.52-17.71,35.22-26.64l-5.13-6.76q-20.53,15.5-41.06,31m-618-10.74q-8,12.21-15.92,24.42c14.39,9.36,28.72,18.8,43.15,28.1Q169,273,177,260.86c-2-1.35-4-2.68-6-4q-5.66,8.66-11.29,17.31l-13.41-8.75q5.29-8.1,10.56-16.2c-2-1.29-3.92-2.59-5.86-3.89-3.7,5.3-7.11,10.79-10.67,16.19-3.88-2.51-7.74-5.05-11.63-7.56,3.75-5.79,7.57-11.53,11.27-17.35l-6-3.89m643.94,47.43c1.45,2.41,2.91,4.81,4.34,7.24,14.75-8.81,29.4-17.79,44.06-26.75-1.5-2.4-3-4.81-4.44-7.21l-44,26.72m14.09,24q1.79,3.86,3.59,7.71c5.78-2.71,11.6-5.35,17.36-8.13q2.88,1.36,5.76,2.78-7.17,12.19-14.26,24.43c1.37,2.89,2.72,5.8,4.08,8.7,6.25-9.83,11.89-20,17.91-30q14.26,4.08,28.59,8-2-4.38-4.06-8.75c-10.21-2.79-20.42-5.56-30.61-8.4,7.19-3.65,14.6-6.86,21.88-10.33l-3.59-7.7L791.9,304.09M106,284.34c-4,2.83-6.43,7.22-8.56,11.5-2.33,4.89-4.7,9.76-6.87,14.71,15.56,7.17,30.93,14.78,46.56,21.81,2.47-5.41,5.06-10.77,7.6-16.15,2.07-4.32,3.56-9.21,2.55-14-1.26-6.66-8.21-11.18-14.76-10.89-3.72.22-6.51,3-8.67,5.78.3-3,.54-6.28-1.35-8.83-3.51-5-11.19-7.61-16.5-3.91M82.35,331.28q-5.26,16.92-10.54,33.86l7,2.18q3.73-12,7.46-24c9.25,11.48,18.42,23,27.65,34.53,1.56,2.23,4.48,2.38,6.83,3.27,3.62-11.76,7.39-23.46,10.91-35.25l-6.93-2.11q-3.95,12.71-7.91,25.39c-9.22-11.5-18.35-23.05-27.53-34.58-1.56-2.25-4.56-2.39-6.91-3.31m728.12,13.44c.84,2.85,1.69,5.71,2.54,8.56,5,.26,10.1.47,15.15.78,1.81,6.25,3.73,12.47,5.56,18.73-3.9,2.95-8,5.65-11.76,8.77-.25,2.94,1.52,5.9,2.14,8.82,14.73-11,29.33-22.14,44-33.2-.88-2.94-1.76-5.88-2.62-8.82q-27.51-1.8-55-3.64M64.18,386.45c.9,2.81,2.11,5.8,4.76,7.42,4.06,2.42,8.9,2.92,13.38,4.24.69-2.7,1.35-5.4,2-8.09l-8.65-2.11c-.32,1.33-.65,2.68-1,4a11.1,11.1,0,0,1-7.34-6.61l-3.21,1.12M855.49,398c-5.41,5.65-4.65,14.2-8.46,20.67-2.27,3.81-8.53,3.93-10.79,0-3.57-6.38-2.33-14.15-.81-21-2.67.43-5.33.84-8,1.25a38,38,0,0,0,1.09,20.37c1.64,4.7,5.24,9.12,10.29,10.24s11.34-.43,14.45-5c3.94-5.68,3.76-13,6.9-19,2-4,8.43-4.66,10.81-.7,3,5.21,1.76,11.56.7,17.16,2.44.51,4.87,1.05,7.31,1.57,1.89-8.39,2.22-18.31-3.44-25.38-4.84-6.12-14.87-5.62-20.06-.25M76.14,410.85A20.75,20.75,0,0,0,60.8,425.07c-2.31,7.87-2.3,17.27,3,24,4.48,5.78,11.88,8.3,18.92,9,7.55.88,16,.07,22-5,6.74-5.75,8.48-15.42,7.45-23.83a20.91,20.91,0,0,0-13-16.41,39.68,39.68,0,0,0-23-2m755.53,36.76c.11,2.81.26,5.63.4,8.46,17.12-.83,34.24-1.81,51.36-2.65-.13-2.83-.28-5.66-.43-8.49C865.89,445.81,848.78,446.74,831.67,447.61Z"/><path class="cls-1" d="M501.32,66.68c4.15.48,8.54.37,12.37,2.26,5.91,2.73,4.54,12.86-1.56,14.49-4,1-8.24.39-12.26-.25C500.16,77.66,500.87,72.18,501.32,66.68Z"/><path class="cls-1" d="M326.18,91.73a12.43,12.43,0,0,1,11,2c4.51,3.5,6.88,9,8.61,14.26,1.48,4.89,2.08,10.74-1.07,15.12s-8.78,6.53-14,6.4c-5.81-.35-10.06-5.14-12.47-10-2.71-5.6-5-12.09-3.26-18.32C316.4,96.11,321.3,93,326.18,91.73Z"/><path class="cls-1" d="M654.32,109.19c3.46,1.87,7.28,3.36,10,6.27,5.16,5.13-.54,15.43-7.6,14.1-3.93-.58-7.34-2.72-10.8-4.49C648.72,119.76,651.56,114.5,654.32,109.19Z"/><path class="cls-1" d="M451.73,155.29a316.48,316.48,0,0,1,110.17,619c-71.2,21.44-150,16.73-218-13.38A317.93,317.93,0,0,1,204,640.81a314.75,314.75,0,0,1-39.72-92.08A316.55,316.55,0,0,1,451.73,155.29m19.45,8.8c-15.3,9.23-30.69,18.3-46,27.43,1.92,1.2,3.85,2.38,5.78,3.58,0,4.34.06,8.69,0,13,.44,3-3,4.94-2.52,8,.1,2.31,2.19,3.72,3.68,5.21,1.1-1.35,2.49-2.56,3.18-4.2.76-2.43-1.14-4.56-1.36-6.91-.21-4.45,0-8.9-.06-13.36,12.53,7.57,25,15.27,37.53,22.8,15.29-9.49,30.75-18.69,46-28.16-15.44-9.08-30.76-18.39-46.23-27.42m-31.5,41.71c0,5.68-.05,11.36,0,17,10.58,6.25,21,12.68,31.58,19q15.76-9.53,31.54-19,0-8.48,0-17-15.76,9.48-31.52,19-15.84-9.48-31.63-19M324.34,231.12c-5.95.29-11.9.13-17.84.3,5,3.66,10.12,7.25,15.17,10.9-1.88,6.05-3.83,12.07-5.67,18.13,5.32-3.45,10.44-7.21,15.67-10.8,5,3.61,9.92,7.33,15,10.89-1.69-6.1-3.92-12.05-5.45-18.19,4.5-4.09,10-7.13,14.85-10.87-6.1-.28-12.21-.22-18.32-.36-2.13-5.86-4.18-11.75-6.37-17.59-2.53,5.79-4.7,11.71-7,17.59m296.89-17.75c-2.26,5.93-4.66,11.8-6.9,17.73-5.94.33-11.9.15-17.84.32,5,3.67,10.11,7.26,15.17,10.9-1.89,6-3.84,12.07-5.68,18.13,5.33-3.45,10.44-7.22,15.68-10.8,5,3.62,9.91,7.34,15,10.89-1.84-6.16-3.76-12.28-5.64-18.42,5-3.58,10.11-7.08,15.09-10.71-6.12-.13-12.25-.18-18.36-.29-2.16-5.91-4.2-11.87-6.47-17.75M454.32,262a208.41,208.41,0,0,0-67.77,17.08A210.29,210.29,0,1,0,454.32,262M237.9,322.55c-5.85.06-11.71,0-17.56.21,4.89,3.79,10,7.23,15,10.9-1.93,6.08-3.87,12.16-5.71,18.27,5.35-3.45,10.29-7.79,15.9-10.69,5.08,3.32,9.78,7.19,14.77,10.64-1.85-6.16-3.77-12.29-5.65-18.45,5-3.58,10.13-7.06,15.09-10.74-6.12-.07-12.23-.18-18.34-.23q-3.21-8.82-6.36-17.67c-2.58,5.83-4.73,11.85-7.13,17.76m465.27-17.92c-2.3,5.9-4.66,11.78-6.91,17.7-5.92.19-11.84.12-17.75.23,5,3.74,10,7.28,15.1,10.89-1.9,6.12-3.84,12.23-5.75,18.34l15.75-11q7.5,5.47,15,11c-1.87-6.18-3.81-12.34-5.68-18.52,5-3.56,10.1-7,15-10.7-6.09-.14-12.19-.17-18.28-.28-2.16-5.89-4.13-11.84-6.48-17.66M198.69,435.81c-5.84,0-11.69,0-17.53.18,4.86,3.81,10,7.22,15,10.88-1.83,6.06-4,12-5.53,18.18,5.19-3.63,10.35-7.31,15.61-10.85,4.95,3.7,9.92,7.38,15,10.94-1.72-6.21-4.39-12.28-5.38-18.61,4.76-3.72,9.91-6.91,14.7-10.58-6.1-.11-12.21-.21-18.32-.25-2.13-5.89-4.22-11.8-6.38-17.68-2.52,5.86-4.71,11.87-7.11,17.79m531,3c-5.84.08-11.68,0-17.52.25,4.88,3.75,10,7.2,15,10.85-1.9,6.08-3.87,12.13-5.69,18.24,5.27-3.61,10.46-7.34,15.76-10.92q7.39,5.52,14.89,10.91c-1.81-6.19-3.86-12.32-5.6-18.53,5-3.47,10.05-7,15-10.6-6.1-.18-12.21-.2-18.31-.3Q740,429.87,736.85,421c-2.54,5.86-4.71,11.86-7.12,17.77m-510,115.74c-5.87.12-11.75,0-17.63.26,5,3.72,10.1,7.19,15.05,10.92-1.92,6-3.9,12-5.64,18.12,5.27-3.57,10.41-7.32,15.71-10.85q7.4,5.5,14.89,10.9c-1.83-6.17-3.79-12.3-5.64-18.46,5.05-3.55,10.11-7.11,15.12-10.71-6.12-.1-12.23-.2-18.35-.24-2.32-5.75-3.94-11.77-6.53-17.39-2.54,5.72-4.61,11.65-7,17.45m493.47,1.52c-5.94.14-11.88.05-17.81.29,5.09,3.57,10.11,7.22,15.18,10.82-1.89,6.08-3.84,12.14-5.71,18.23,5.29-3.55,10.47-7.27,15.71-10.89,5,3.61,9.88,7.35,15,10.85-1.87-6.13-3.77-12.25-5.65-18.37,5-3.58,10.12-7.12,15.15-10.73-6.15-.11-12.28-.16-18.42-.28-2.12-5.92-4.28-11.82-6.36-17.75-2.45,5.9-4.75,11.87-7.05,17.83M290.08,632.89c-2.35,6-4.71,11.92-7,17.9q-8.82,0-17.65.17c4.94,3.74,10.06,7.25,15.07,10.91-1.93,6.08-3.86,12.16-5.74,18.26,5.22-3.63,10.47-7.23,15.64-10.94,5.09,3.56,10,7.33,15.08,10.95-1.86-6.18-3.82-12.34-5.66-18.52,5-3.53,10.08-7,15-10.66-6.11-.18-12.22-.17-18.33-.32-2.11-5.93-4.22-11.85-6.4-17.75m363.19,4c-2.29,6-4.64,11.9-7,17.84-5.9-.05-11.81.08-17.71.11,5,3.69,10,7.28,15.11,10.83-1.77,6.17-3.83,12.24-5.69,18.38,5.26-3.62,10.49-7.3,15.74-10.95,5,3.65,10,7.27,14.92,11-1.75-6.18-3.7-12.3-5.63-18.42,4.94-3.65,10.07-7,15-10.74-6-.2-12.07-.25-18.11-.27-2.34-5.86-4.19-11.91-6.6-17.74M405.78,714.13c-5.92,0-11.83.12-17.74.11,5,3.76,10.1,7.3,15.16,11-1.89,6.07-3.86,12.12-5.69,18.21,5.32-3.54,10.46-7.33,15.78-10.87,4.9,3.67,9.81,7.34,14.85,10.84-1.84-6.13-3.74-12.24-5.63-18.34,5-3.62,10.14-7.13,15.15-10.77-6.16-.08-12.31-.15-18.47-.26-2.05-6-4.23-11.83-6.33-17.75-2.44,5.93-4.72,11.92-7.08,17.88m136.43-15.42c-2.34,5.93-4.6,11.9-7,17.79-5.89-.07-11.77.11-17.65.06,5,3.78,10.08,7.31,15.14,11-1.88,6.1-3.85,12.17-5.7,18.29,5.25-3.62,10.46-7.28,15.69-10.93q7.51,5.46,15,11c-1.86-6.2-3.83-12.36-5.66-18.56,5-3.53,10.11-7,15-10.7-6.11-.06-12.21-.19-18.31-.21C546.54,710.48,544.6,704.51,542.21,698.71Z"/><path class="cls-1" d="M743.13,189.45c3.35-3.3,6.69-6.61,10.06-9.88,3.19,3.47,7.11,6.47,9.25,10.78,2.73,5.09-4.35,11.45-9.16,8.34C749.29,196.35,746.45,192.58,743.13,189.45Z"/><path class="cls-1" d="M726.75,205.66c3.86-3.69,7.61-7.49,11.35-11.29,3.48,3.58,7.68,6.72,9.95,11.28,3,5.72-4.41,12.8-10,10C733.43,213.4,730.35,209.13,726.75,205.66Z"/><path class="cls-1" d="M108.24,292.81c2.82-2.37,7-.74,9.15,1.7,1.74,2,1.32,4.83.55,7.11-1.25,3.51-3.07,6.78-4.55,10.19-4.3-1.91-8.53-4-12.79-6C102.89,301.4,104.35,296.2,108.24,292.81Z"/><path class="cls-1" d="M127.11,301.48c4.56-4.52,13.63.37,12.55,6.67-.69,4.87-3.59,9-5.41,13.52-4.92-2.21-9.77-4.57-14.65-6.85C121.93,310.31,123.39,305.12,127.11,301.48Z"/><path class="cls-1" d="M835.87,354.3c7.71.3,15.43.82,23.16.76-6.37,4.39-12.6,9-18.93,13.41Z"/><path class="cls-1" d="M417,501.5q-.1-49.42,0-98.83c20.34,8.2,37.78,23,49.9,41.18,1.06,1.54,2,3.25,1.82,5.21,0,30.1.06,60.21-.05,90.32C457.17,520.67,437.51,508.4,417,501.5Z"/><path class="cls-1" d="M476.17,442.6c12.13-17.56,29.14-32,49.08-39.85q0,49.37,0,98.73c-20.47,6.93-40.11,19.19-51.69,37.89-.12-30.1,0-60.19-.06-90.29C473.21,446.57,474.91,444.56,476.17,442.6Z"/><path class="cls-1" d="M406,408.84l5.92,2.13q0,46.83,0,93.65c12.84,4.71,25.6,10.25,36.62,18.47-13.31-6.78-27.2-14.53-42.58-14.2C406.05,475.54,406,442.19,406,408.84Z"/><path class="cls-1" d="M530.34,411l5.87-2.2c.12,33.36,0,66.71.08,100.07-15.38-.31-29.25,7.44-42.55,14.21,11-8.24,23.77-13.74,36.6-18.47Q530.33,457.82,530.34,411Z"/><path class="cls-1" d="M394.42,414.56c2.28,1.07,4.55,2.15,6.83,3.24q0,47.52,0,95.06c20.39,2.58,41,9.47,56.52,23.4-19.78-9.07-41.16-17.8-63.38-15.47Q394.46,467.68,394.42,414.56Z"/><path class="cls-1" d="M541,417.77l6.81-3.21q0,53.12,0,106.24c-22.23-2.32-43.64,6.35-63.39,15.51,15.45-14,36.14-20.85,56.52-23.45C541,481.16,541,449.47,541,417.77Z"/><path class="cls-1" d="M77,419.72c7.35-1.52,15.52-.8,22.11,3,7,4.12,7.46,14.13,3.54,20.52-3,4.64-8.82,6.22-14,6.21-5.88-.06-12.18-.85-17-4.45C63,438.41,66,421.81,77,419.72Z"/><path class="cls-1" d="M83.22,530.94c4.43-1,9.33-1.12,13.36,1.26,8.48,4.51,10.24,17.59,3.35,24.25-4.47,4.75-11.41,5-17.43,6.15-7.06,1-14.51-3.57-16.41-10.52-1.86-5.43-.68-11.9,3.62-15.85,3.55-3.64,8.75-4.39,13.51-5.29m-2,6.92c-3.16.59-6.52,1.56-8.66,4.13-3.69,4-1.87,11.36,3.11,13.43,3.54,1.71,7.52.65,11.18,0s7.44-1.37,9.9-4.26c3.72-3.91,2.44-11.32-2.56-13.53C90,535.56,85.41,537.13,81.17,537.86Z"/><path class="cls-1" d="M840.51,534.23c12.43,2.22,24.88,4.4,37.31,6.67-.4,2.08-.78,4.18-1.16,6.27-12.37-2.34-24.85-4.18-37.15-6.8C839.73,538.29,840.14,536.26,840.51,534.23Z"/><path class="cls-1" d="M840.61,553.92c2.55-1.46,5.58-1.08,8.39-.87-.48,2-.94,3.93-1.4,5.9-2.2.17-4.74-.08-6.43,1.59-2.92,2.8-3.79,7.88-1.19,11.18,2.22,3.2,6.21,4.12,9.77,5,3.76.86,7.8,2.46,11.62.9,5.18-1.86,6.94-8.63,5-13.38-2.46-1.11-5.15-1.5-7.73-2.2q-1,3.81-1.94,7.64L852,568.53c1.16-4.63,2.35-9.25,3.52-13.88,4.72,1.17,9.43,2.42,14.17,3.56,5.22,8.25,2.51,21.45-6.94,25.35-6,2.57-12.27-.19-18.14-1.58-6.33-1.43-11.55-7.22-11.49-13.85C833.26,562.67,835.5,556.57,840.61,553.92Z"/><path class="cls-1" d="M72,576.28c12.16-3.45,24.26-7.11,36.42-10.52.55,2.06,1.11,4.11,1.66,6.18C99.6,574.89,89.17,578,78.71,581q2.46,8.49,4.93,17l-4.93,1.43C76.49,591.72,74.19,584,72,576.28Z"/><path class="cls-1" d="M825.61,592.84c.65-2,1.32-4.06,2-6.08q18,6,36,12c-.69,2-1.36,4-2,6.06Q843.58,598.81,825.61,592.84Z"/><path class="cls-1" d="M82.11,608.78q17.79-6.48,35.59-12.92l2.19,6q-17.81,6.44-35.6,12.9Q83.2,611.79,82.11,608.78Z"/><path class="cls-1" d="M105,628.7c5.7-6.9,11-14.13,16.66-21.06,1,2.15,1.93,4.31,2.89,6.48-4.34,5.23-8.73,10.44-13,15.71q10.18.42,20.38.9c.95,2.17,1.91,4.33,2.86,6.51-9.05-.58-18.09-1.49-27.15-1.92-4.49,1-8.49,3.59-12.78,5.23-.86-1.94-1.73-3.88-2.6-5.8C96.46,632.61,101.12,631.3,105,628.7Z"/><path class="cls-1" d="M853.65,612.28l4.74,2q-4.53,11.16-9.07,22.31-17.57-7.1-35.09-14.28,1.2-3,2.42-5.93L847,628.67Q850.31,620.48,853.65,612.28Z"/><path class="cls-1" d="M809,636.38c5.88-5.51,17.13-.69,16.46,7.64,2.14-1.33,4.6-2.64,7.22-1.91,4.29,1,7.87,4.44,12.56,3.93-1.13,2.13-2.25,4.26-3.39,6.38-4.38-.5-7.83-3.77-12.14-4.3-5.1.44-6.08,6.47-8.35,10.07q6.93,3.6,13.9,7.14-1.46,2.86-2.9,5.74c-11.24-5.72-22.4-11.59-33.68-17.25C802,648,804,641.1,809,636.38m2.23,5.37c-2.31,2.45-3.43,5.74-5,8.66q5.26,2.72,10.54,5.41c1.52-3.16,3.64-6.13,4.23-9.64C821.3,641.52,814.47,638.42,811.18,641.75Z"/><path class="cls-1" d="M117.92,684.14c8.18-10.55,16.63-20.92,25.11-31.25,1.17,1.9,2.33,3.8,3.51,5.7-6.87,8.11-13.6,16.34-20.72,24.22,10.19-2.94,20.6-5,30.88-7.62l3.59,5.83-39.4,8.3A53.28,53.28,0,0,1,117.92,684.14Z"/><path class="cls-1" d="M790.13,667.82c1.09-1.86,2.19-3.7,3.29-5.54,10.81,6.55,21.63,13.07,32.41,19.66l-3.33,5.46C811.7,680.88,801,674.3,790.13,667.82Z"/><path class="cls-1" d="M770.69,696.6q7.41-10.7,14.92-21.32c1.44,1.19,3.23,2.23,3.83,4.15,4.12,9.93,8.17,19.9,12.32,29.82q5.49-7.82,11-15.64l4.21,2.93q-7.66,11-15.39,22c-1.51-1.24-3.41-2.26-4-4.25q-6.06-14.82-12.15-29.63c-3.56,4.92-7,10-10.51,14.89Z"/><path class="cls-1" d="M130.22,704c12.74-4,25.5-8,38.24-12,1.21,1.62,2.42,3.24,3.63,4.88Q160.8,713.43,149.5,730c-1.33-1.75-2.64-3.5-4-5.23,1.74-2.57,3.54-5.11,5.34-7.63q-3.94-5.37-7.94-10.7c-3,1-5.9,2-8.87,2.91-1.27-1.77-2.56-3.53-3.84-5.3m18.16.59q2.82,4,5.82,7.84c2.93-4.24,6-8.39,8.88-12.65C158.15,701.32,153.28,703,148.38,704.6Z"/><path class="cls-1" d="M759.71,710.09l37.37,14.42-4.25,5.08c-2.89-1.17-5.77-2.35-8.66-3.47-2.81,3.41-5.67,6.77-8.52,10.14l4.87,7.93q-2.14,2.52-4.26,5.06c-6.85-11.48-13.6-23-20.45-34.48,1.28-1.57,2.59-3.13,3.9-4.68m4.8,8c2.76,4.33,5.18,8.89,8.17,13.07a31.43,31.43,0,0,0,5.94-7.32C774,721.81,769.19,720.07,764.51,718.11Z"/><path class="cls-1" d="M742.12,730.06c1.62-1.62,3.23-3.24,4.85-4.84,5.72,12.09,11.34,24.24,17.11,36.31l-4.27,4.37c-12.11-5.77-24.19-11.58-36.3-17.33q2.4-2.48,4.86-4.89c9.33,5,18.87,9.5,28.14,14.57C751.42,749,747,739.43,742.12,730.06Z"/><path class="cls-1" d="M189.21,728.83c9.13-2.89,19.07,5,19.38,14.32a16,16,0,0,1-4.84,12c-4.06,4-8,8.93-14,9.79-9.53,1.94-19.37-7.2-18-16.85.35-4.32,2.93-8,6-10.92,3.4-3.27,6.69-7.15,11.47-8.34m1.83,5.85c-3.15,1.17-5.39,3.8-7.77,6.05s-5.06,4.91-5.69,8.38c-1.39,5.65,4.52,11.35,10.11,10.11,4.25-.73,7.06-4.31,10-7.1,2.53-2.36,5-5.3,5.09-8.92C203.18,737.36,196.58,732.15,191,734.68Z"/><path class="cls-1" d="M218.5,750c2.18-1.42,4.88-1,7.33-.94,0,.71-.13,2.13-.18,2.84a11.17,11.17,0,0,0-7.84,3l2.63,2.39-4.86,5.62-5.24-4.58C212.94,755.39,215.21,752.09,218.5,750Z"/><path class="cls-1" d="M209.33,790.23q11.55-15,23.12-30c4.86,4.16,10.75,7.28,14.68,12.44,3.71,4.84,1.52,12.4-3.8,15.05-2,1-4.18.67-6.27.66,1,2.16,1.84,4.63.87,7-1.68,4.26-6,7.21-6.28,12.07-1.86-1.43-3.71-2.85-5.57-4.26.92-4.36,4.88-7.08,6.25-11.16.73-5.21-5.2-7.36-8.39-10.24-3.16,4.14-6.35,8.26-9.52,12.39l-5.09-3.91m17.8-12.68c2.48,1.94,4.82,4.14,7.67,5.56,4.68,2.67,10.17-4.23,7.16-8.4-2-2.68-5-4.38-7.6-6.48C232,771.35,229.58,774.47,227.13,777.55Z"/><path class="cls-1" d="M701.39,766.94c2.17-1.63,4.35-3.23,6.53-4.84,7.51,10.15,14.94,20.38,22.45,30.54-1.76,1.26-3.5,2.52-5.25,3.79-5.29-7.21-10.43-14.54-16-21.57,2.44,9.29,5.11,18.52,7.54,27.82-1.16.83-2.31,1.68-3.44,2.54-8.35-5.19-16.5-10.67-24.82-15.89,5.22,7.52,10.79,14.78,16.16,22.19-1.73,1.27-3.45,2.53-5.17,3.81Q688.22,800.08,677,784.8c2.23-1.67,4.48-3.32,6.74-5q13,8.52,26,17C707.06,786.87,704.17,776.92,701.39,766.94Z"/><path class="cls-1" d="M256.93,778.92q12.45,8,24.9,16c-.91,1.43-1.83,2.87-2.73,4.32-3.32-2.07-6.6-4.19-9.92-6.25-5.82,9.2-11.73,18.34-17.59,27.51l-5.4-3.42c5.83-9.23,11.78-18.38,17.62-27.59-3.23-2.05-6.45-4.12-9.66-6.18Q255.53,781.08,256.93,778.92Z"/><path class="cls-1" d="M663.08,793c1.82-1.12,3.64-2.24,5.48-3.34q9.86,16.18,19.71,32.36-2.74,1.65-5.48,3.31Q672.94,809.16,663.08,793Z"/><path class="cls-1" d="M264.26,828.43q14.69-13.63,29.36-27.26L299,804q-3.09,19.79-6.19,39.58l-5.84-3.1q.81-4.58,1.59-9.13l-11.77-6.22c-2.25,2.17-4.49,4.35-6.79,6.47-1.9-1.08-3.81-2.13-5.72-3.17m16.61-7.22c2.88,1.53,5.76,3.06,8.66,4.55.84-5.08,1.78-10.14,2.57-15.22C288.27,814,284.6,817.64,280.87,821.21Z"/><path class="cls-1" d="M635.39,808.12q2.85-1.49,5.73-2.94c5,9.68,10.13,19.27,15.13,28.94,5.24-2.67,10.44-5.44,15.65-8.18.83,1.5,1.63,3,2.45,4.52-7.12,3.75-14.24,7.52-21.39,11.2C647.14,830.46,641.23,819.31,635.39,808.12Z"/><path class="cls-1" d="M620.39,816.25c1.88-1.32,3.77-2.65,5.66-4,2.16,3.22,4.83,6.23,6.08,10,.83,2.5-.21,5-1,7.4l-2.64-1.08a10,10,0,0,0-.91-8.05l-3,1.61A71.5,71.5,0,0,1,620.39,816.25Z"/><path class="cls-1" d="M317.12,854.42q6.24-17.88,12.47-35.74c2.62.91,5.25,1.83,7.88,2.73q.34,15.51.68,31c6.79-7.84,13.27-15.94,20-23.82,2.53.91,5.07,1.8,7.62,2.7-4.13,11.92-8.33,23.82-12.45,35.74L347.27,865c2.82-8.44,6-16.74,8.64-25.23-6.31,7.11-12.34,14.49-18.48,21.76L333.19,860c-.24-9.76-.5-19.51-.87-29.26-3.34,8.51-6,17.26-9.2,25.83C321.12,855.83,319.12,855.13,317.12,854.42Z"/><path class="cls-1" d="M601.68,822.4l5.6-2.07c8.52,10.27,17.13,20.47,25.62,30.76l-6.17,2.34-5.82-7.21q-6.23,2.35-12.44,4.73.19,4.63.4,9.28l-6.17,2.34c-.31-13.39-.84-26.78-1-40.17m5.9,7.36c.13,5.16.41,10.32.61,15.48,3.07-1.1,6.1-2.26,9.16-3.4C614.11,837.79,610.91,833.73,607.58,829.76Z"/><path class="cls-1" d="M560.67,835.32c9.49-2.68,18.94-5.47,28.43-8.13.46,1.63.94,3.28,1.41,4.92q-5.6,1.64-11.21,3.24c3,10.51,6.11,21,9,31.51-2,.54-4.06,1.11-6.08,1.68q-4.59-15.67-9-31.39c-3.71,1-7.4,2.09-11.1,3.13C561.59,838.61,561.14,837,560.67,835.32Z"/><path class="cls-1" d="M363.39,869.78c7.06-11.34,14.2-22.63,21.26-34,2,.43,4,.89,5.93,1.33q2.18,19.92,4.32,39.83l-6.45-1.47c-.27-3.09-.56-6.17-.85-9.24l-13-3-4.81,8-6.44-1.47m14.21-11.3,9.51,2.15c-.49-5.15-.9-10.31-1.46-15.46C382.89,849.56,380.22,854,377.6,858.48Z"/><path class="cls-1" d="M406.67,840.61q3.75.46,7.52,1c1.92,4.92,4,9.8,5.89,14.72,3.29-4.19,6.47-8.45,9.68-12.7l7.61,1c-4.72,5.69-9.42,11.4-14,17.18,3.23,6.77,6.35,13.61,9.51,20.43-2.59-.35-5.17-.71-7.74-1.13-2-5-4.09-10-6.15-14.94-3.35,4.31-6.61,8.68-10,13-2.49-.37-5-.7-7.44-1q7.11-8.69,14.25-17.33C412.77,854,409.68,847.33,406.67,840.61Z"/><path class="cls-1" d="M519.29,844.79c5.21-4.68,14.15-5.64,19.73-1.06,2.15,1.63,3,4.29,3.7,6.76l-6,.92c-1.1-3.45-4.3-6.21-8.11-5.37-3.52.09-7.3,3.34-5.86,7.11,1.45,3.5,5.93,3.55,9.09,4.22,3.73.56,7.67,1.43,10.56,4,4,3.64,4.24,10.83,0,14.36a17.9,17.9,0,0,1-20.07,1.66c-2.77-1.57-4-4.66-4.63-7.59,2-.31,4-.61,6-.89,1.37,6.31,9.91,7.26,14.15,3.35,2.58-2.47,1.13-7.2-2.19-8.18-5.28-1.76-11.43-1.25-16-4.84C515.08,855.87,515.05,848.41,519.29,844.79Z"/><path class="cls-1" d="M447.58,847.16c5.78-3.52,14.27-3,19.1,2,2.13,2.07,2.66,5.09,3,7.92q-3.09,0-6.15-.14c-.13-5.79-7.09-8.58-11.71-5.85-3,1.62-3.22,6.43-.14,8.1,4.64,2.9,10.64,3.37,14.58,7.45,4.41,4.14,3.63,12.45-1.83,15.32-6.28,3.42-14.92,2.54-20.16-2.4-2.3-2-2.65-5.2-3-8,2,0,4,.08,6.07.14.25,6.56,8.73,9.2,13.61,5.8,2.61-2,2.18-6.46-.62-8.06-4.65-2.81-10.56-3.33-14.52-7.34C441.42,858,442.5,850.09,447.58,847.16Z"/><path class="cls-1" d="M500.32,844.76q3.18-.18,6.39-.32c.39,8.87,1.12,17.73,1.34,26.6.13,6.32-5.39,11.39-11.38,12.23-7,1.66-15.9-1.55-17.53-9.18-1.17-9.3-1.13-18.72-1.82-28.06q3.18-.19,6.38-.34c.56,8.76.8,17.55,1.55,26.3.39,4.48,5.17,7.3,9.39,6.39a7.66,7.66,0,0,0,7-8.22C501.35,861.68,500.72,853.23,500.32,844.76Z"/></g><g id="_111e52ff" data-name="#111e52ff"><path class="cls-2" d="M437.26,19c79.48-6,160.51,9.24,232.14,44.28a453.61,453.61,0,0,1-13.62,822.06A453.8,453.8,0,0,1,36.33,600.22C5.62,497.12,13.12,383.11,57.55,285.09A453.68,453.68,0,0,1,437.26,19M399.7,36A440.58,440.58,0,0,0,30.28,468.81C47.61,479.42,65,490,82.17,500.79c20.14-11.42,40.07-23.2,60.09-34.82a328.91,328.91,0,0,1,657.76,2c20.08,10.95,40.1,22,60.22,32.87,17.21-11.93,34.53-23.7,51.78-35.57a443.87,443.87,0,0,0-13.58-103.11A441.89,441.89,0,0,0,653.25,69.5C574.52,33.55,485.06,22,399.7,36m52,119.29A316.48,316.48,0,0,0,343.92,760.94c68,30.11,146.78,34.82,218,13.38a316.44,316.44,0,0,0-110.17-619M83.22,530.94c-4.76.9-10,1.65-13.51,5.29-4.3,3.95-5.48,10.42-3.62,15.85C68,559,75.44,563.64,82.5,562.6c6-1.11,13-1.4,17.43-6.15,6.89-6.66,5.13-19.74-3.35-24.25-4-2.38-8.93-2.27-13.36-1.26m757.29,3.29c-.37,2-.78,4.06-1,6.14,12.3,2.62,24.78,4.46,37.15,6.8.38-2.09.76-4.19,1.16-6.27-12.43-2.27-24.88-4.45-37.31-6.67m.1,19.69c-5.11,2.65-7.35,8.75-7.46,14.21-.06,6.63,5.16,12.42,11.49,13.85,5.87,1.39,12.18,4.15,18.14,1.58,9.45-3.9,12.16-17.1,6.94-25.35-4.74-1.14-9.45-2.39-14.17-3.56-1.17,4.63-2.36,9.25-3.52,13.88l4.68,1.15q1-3.82,1.94-7.64c2.58.7,5.27,1.09,7.73,2.2,1.93,4.75.17,11.52-5,13.38-3.82,1.56-7.86,0-11.62-.9-3.56-.88-7.55-1.8-9.77-5-2.6-3.3-1.73-8.38,1.19-11.18,1.69-1.67,4.23-1.42,6.43-1.59.46-2,.92-3.94,1.4-5.9-2.81-.21-5.84-.59-8.39.87M72,576.28c2.19,7.73,4.49,15.44,6.71,23.16L83.64,598q-2.46-8.49-4.93-17c10.46-3,20.89-6.14,31.37-9.09-.55-2.07-1.11-4.12-1.66-6.18-12.16,3.41-24.26,7.07-36.42,10.52m753.61,16.56q18,6,35.92,12c.68-2,1.35-4,2-6.06q-18-6-36-12c-.67,2-1.34,4-2,6.08M82.11,608.78q1.08,3,2.18,6,17.79-6.46,35.6-12.9l-2.19-6q-17.79,6.46-35.59,12.92M105,628.7c-3.92,2.6-8.58,3.91-12.77,6,.87,1.92,1.74,3.86,2.6,5.8,4.29-1.64,8.29-4.24,12.78-5.23,9.06.43,18.1,1.34,27.15,1.92-1-2.18-1.91-4.34-2.86-6.51q-10.18-.47-20.38-.9c4.3-5.27,8.69-10.48,13-15.71-1-2.17-1.91-4.33-2.89-6.48-5.66,6.93-11,14.16-16.66,21.06m748.61-16.42q-3.36,8.19-6.69,16.39l-30.31-12.34q-1.21,3-2.42,5.93,17.53,7.15,35.09,14.28,4.51-11.17,9.07-22.31l-4.74-2M809,636.38c-5,4.72-7,11.59-10.32,17.44,11.28,5.66,22.44,11.53,33.68,17.25q1.44-2.88,2.9-5.74-7-3.52-13.9-7.14c2.27-3.6,3.25-9.63,8.35-10.07,4.31.53,7.76,3.8,12.14,4.3,1.14-2.12,2.26-4.25,3.39-6.38-4.69.51-8.27-2.88-12.56-3.93-2.62-.73-5.08.58-7.22,1.91.67-8.33-10.58-13.15-16.46-7.64m-691,47.76a53.28,53.28,0,0,0,3,5.18l39.4-8.3-3.59-5.83c-10.28,2.61-20.69,4.68-30.88,7.62,7.12-7.88,13.85-16.11,20.72-24.22-1.18-1.9-2.34-3.8-3.51-5.7-8.48,10.33-16.93,20.7-25.11,31.25m672.21-16.32C801,674.3,811.7,680.88,822.5,687.4l3.33-5.46c-10.78-6.59-21.6-13.11-32.41-19.66-1.1,1.84-2.2,3.68-3.29,5.54M770.69,696.6l4.2,2.93c3.54-4.94,7-10,10.51-14.89q6.09,14.8,12.15,29.63c.58,2,2.48,3,4,4.25q7.73-11,15.39-22l-4.21-2.93q-5.49,7.82-11,15.64c-4.15-9.92-8.2-19.89-12.32-29.82-.6-1.92-2.39-3-3.83-4.15q-7.49,10.63-14.92,21.32M130.22,704c1.28,1.77,2.57,3.53,3.84,5.3,3-.94,5.92-1.93,8.87-2.91q4,5.34,7.94,10.7c-1.8,2.52-3.6,5.06-5.34,7.63,1.33,1.73,2.64,3.48,4,5.23q11.28-16.55,22.59-33.05c-1.21-1.64-2.42-3.26-3.63-4.88-12.74,4-25.5,8-38.24,12m629.49,6.08c-1.31,1.55-2.62,3.11-3.9,4.68,6.85,11.47,13.6,23,20.45,34.48q2.12-2.54,4.26-5.06l-4.87-7.93c2.85-3.37,5.71-6.73,8.52-10.14,2.89,1.12,5.77,2.3,8.66,3.47l4.25-5.08-37.37-14.42m-17.59,20c4.85,9.37,9.3,18.94,14.39,28.19-9.27-5.07-18.81-9.61-28.14-14.57q-2.46,2.42-4.86,4.89c12.11,5.75,24.19,11.56,36.3,17.33l4.27-4.37c-5.77-12.07-11.39-24.22-17.11-36.31-1.62,1.6-3.23,3.22-4.85,4.84m-552.91-1.23c-4.78,1.19-8.07,5.07-11.47,8.34-3.08,2.88-5.66,6.6-6,10.92-1.34,9.65,8.5,18.79,18,16.85,6-.86,9.93-5.84,14-9.79a16,16,0,0,0,4.84-12c-.31-9.28-10.25-17.21-19.38-14.32M218.5,750c-3.29,2.14-5.56,5.44-8.16,8.32l5.24,4.58,4.86-5.62-2.63-2.39a11.17,11.17,0,0,1,7.84-3c0-.71.14-2.13.18-2.84-2.45,0-5.15-.48-7.33.94m-9.17,40.28,5.09,3.91c3.17-4.13,6.36-8.25,9.52-12.39,3.19,2.88,9.12,5,8.39,10.24-1.37,4.08-5.33,6.8-6.25,11.16,1.86,1.41,3.71,2.83,5.57,4.26.33-4.86,4.6-7.81,6.28-12.07,1-2.35.09-4.82-.87-7,2.09,0,4.32.31,6.27-.66,5.32-2.65,7.51-10.21,3.8-15.05-3.93-5.16-9.82-8.28-14.68-12.44q-11.56,15-23.12,30m492.06-23.29c2.78,10,5.67,19.93,8.34,29.94q-13-8.57-26-17c-2.26,1.65-4.51,3.3-6.74,5q11.22,15.26,22.41,30.53c1.72-1.28,3.44-2.54,5.17-3.81-5.37-7.41-10.94-14.67-16.16-22.19,8.32,5.22,16.47,10.7,24.82,15.89,1.13-.86,2.28-1.71,3.44-2.54-2.43-9.3-5.1-18.53-7.54-27.82,5.52,7,10.66,14.36,16,21.57,1.75-1.27,3.49-2.53,5.25-3.79-7.51-10.16-14.94-20.39-22.45-30.54-2.18,1.61-4.36,3.21-6.53,4.84m-444.46,12q-1.4,2.16-2.78,4.35c3.21,2.06,6.43,4.13,9.66,6.18C258,798.66,252,807.81,246.19,817l5.4,3.42c5.86-9.17,11.77-18.31,17.59-27.51,3.32,2.06,6.6,4.18,9.92,6.25.9-1.45,1.82-2.89,2.73-4.32q-12.42-8-24.9-16M663.08,793q9.84,16.17,19.71,32.33,2.73-1.66,5.48-3.31-9.84-16.18-19.71-32.36c-1.84,1.1-3.66,2.22-5.48,3.34M264.26,828.43c1.91,1,3.82,2.09,5.72,3.17,2.3-2.12,4.54-4.3,6.79-6.47l11.77,6.22q-.78,4.56-1.59,9.13l5.84,3.1Q295.91,823.8,299,804l-5.36-2.83q-14.7,13.62-29.36,27.26m371.13-20.31c5.84,11.19,11.75,22.34,17.57,33.54,7.15-3.68,14.27-7.45,21.39-11.2-.82-1.53-1.62-3-2.45-4.52-5.21,2.74-10.41,5.51-15.65,8.18-5-9.67-10.14-19.26-15.13-28.94q-2.88,1.46-5.73,2.94m-15,8.13a71.5,71.5,0,0,0,4.2,5.89l3-1.61a10,10,0,0,1,.91,8.05l2.64,1.08c.8-2.36,1.84-4.9,1-7.4-1.25-3.74-3.92-6.75-6.08-10-1.89,1.31-3.78,2.64-5.66,4M317.12,854.42c2,.71,4,1.41,6,2.14,3.18-8.57,5.86-17.32,9.2-25.83.37,9.75.63,19.5.87,29.26l4.24,1.51c6.14-7.27,12.17-14.65,18.48-21.76-2.62,8.49-5.82,16.79-8.64,25.23l6.06,2.08c4.12-11.92,8.32-23.82,12.45-35.74-2.55-.9-5.09-1.79-7.62-2.7-6.74,7.88-13.22,16-20,23.82q-.36-15.51-.68-31c-2.63-.9-5.26-1.82-7.88-2.73q-6.24,17.87-12.47,35.74m284.56-32c.18,13.39.71,26.78,1,40.17l6.17-2.34q-.21-4.65-.4-9.28,6.21-2.38,12.44-4.73l5.82,7.21,6.17-2.34c-8.49-10.29-17.1-20.49-25.62-30.76l-5.6,2.07m-41,12.92c.47,1.65.92,3.29,1.4,5,3.7-1,7.39-2.12,11.1-3.13q4.46,15.71,9,31.39c2-.57,4-1.14,6.08-1.68-2.87-10.54-6-21-9-31.51q5.61-1.61,11.21-3.24c-.47-1.64-1-3.29-1.41-4.92-9.49,2.66-18.94,5.45-28.43,8.13M363.39,869.78l6.44,1.47,4.81-8,13,3c.29,3.07.58,6.15.85,9.24L394.9,877q-2.16-19.92-4.32-39.83c-2-.44-4-.9-5.93-1.33-7.06,11.35-14.2,22.64-21.26,34m43.28-29.17c3,6.72,6.1,13.42,9.09,20.15q-7.15,8.64-14.25,17.33c2.48.34,4.95.67,7.44,1,3.39-4.28,6.65-8.65,10-13,2.06,5,4.17,9.92,6.15,14.94,2.57.42,5.15.78,7.74,1.13-3.16-6.82-6.28-13.66-9.51-20.43,4.62-5.78,9.32-11.49,14-17.18l-7.61-1c-3.21,4.25-6.39,8.51-9.68,12.7-1.93-4.92-4-9.8-5.89-14.72q-3.76-.54-7.52-1m112.62,4.18c-4.24,3.62-4.21,11.08.29,14.48,4.6,3.59,10.75,3.08,16,4.84,3.32,1,4.77,5.71,2.19,8.18-4.24,3.91-12.78,3-14.15-3.35-2,.28-4,.58-6,.89.67,2.93,1.86,6,4.63,7.59a17.9,17.9,0,0,0,20.07-1.66c4.29-3.53,4.07-10.72,0-14.36-2.89-2.6-6.83-3.47-10.56-4-3.16-.67-7.64-.72-9.09-4.22-1.44-3.77,2.34-7,5.86-7.11,3.81-.84,7,1.92,8.11,5.37l6-.92c-.75-2.47-1.55-5.13-3.7-6.76-5.58-4.58-14.52-3.62-19.73,1.06m-71.71,2.37c-5.08,2.93-6.16,10.85-1.77,14.85,4,4,9.87,4.53,14.52,7.34,2.8,1.6,3.23,6.08.62,8.06-4.88,3.4-13.36.76-13.61-5.8-2-.06-4.06-.12-6.07-.14.33,2.85.68,6,3,8,5.24,4.94,13.88,5.82,20.16,2.4,5.46-2.87,6.24-11.18,1.83-15.32-3.94-4.08-9.94-4.55-14.58-7.45-3.08-1.67-2.83-6.48.14-8.1,4.62-2.73,11.58.06,11.71,5.85q3.06.09,6.15.14c-.32-2.83-.85-5.85-3-7.92-4.83-5-13.32-5.48-19.1-2m52.74-2.4c.4,8.47,1,16.92,1.34,25.4a7.66,7.66,0,0,1-7,8.22c-4.22.91-9-1.91-9.39-6.39-.75-8.75-1-17.54-1.55-26.3q-3.19.15-6.38.34c.69,9.34.65,18.76,1.82,28.06,1.63,7.63,10.55,10.84,17.53,9.18,6-.84,11.51-5.91,11.38-12.23-.22-8.87-.95-17.73-1.34-26.6Q503.5,844.58,500.32,844.76Z"/><path class="cls-2" d="M488.82,110c1.48-17.1,3.16-34.18,4.71-51.27,8.71,1.25,18.08.34,26.13,4.45,8.94,4.58,8.61,19.26.15,24.16A46,46,0,0,1,515,89.74c4.17,7.89,8.19,15.87,12.29,23.8-3.19-.29-6.37-.59-9.55-.85-3.55-7.14-7-14.34-10.36-21.54-2.75-.31-5.5-.57-8.24-.83-.62,6.81-1.27,13.62-1.9,20.43-2.8-.26-5.6-.52-8.4-.73m12.5-43.34c-.45,5.5-1.16,11-1.45,16.5,4,.64,8.24,1.27,12.26.25,6.1-1.63,7.47-11.76,1.56-14.49C509.86,67.05,505.47,67.16,501.32,66.68Z"/><path class="cls-2" d="M402.16,64l7.63-1.52c3.39,16.81,6.84,33.61,10.2,50.43-3.39.66-6.77,1.36-10.16,2-11-11.67-21.85-23.55-33-35.08,3.74,13.17,6,26.69,8.7,40.08-2.51.46-5,.95-7.52,1.42-3.38-16.81-6.84-33.6-10.19-50.41,3.34-.65,6.69-1.34,10-2,11,11.6,21.82,23.34,32.86,34.88C407.28,90.63,404.91,77.24,402.16,64Z"/><path class="cls-2" d="M539.92,116.22q5.73-25.09,11.59-50.16,14.16,3.31,28.34,6.55-.78,3.52-1.58,7c-6.71-1.54-13.41-3.14-20.14-4.63-1,4.51-2.07,9-3.11,13.5q9.43,2.17,18.86,4.37c-.55,2.31-1.09,4.63-1.63,6.94q-9.42-2.2-18.85-4.36-1.77,7.8-3.6,15.59c6.71,1.58,13.44,3.09,20.15,4.7-.57,2.34-1.13,4.68-1.71,7C558.81,120.55,549.36,118.39,539.92,116.22Z"/><path class="cls-2" d="M597.74,86.15c3-3.31,7.68-4.44,12-3.91,7.13.83,13.49,4.77,18.67,9.56l-4.93,5.57c-4.26-3.57-9-7.48-14.77-7.76-4.84-.29-7.92,5.9-5.24,9.75,3.67,5.6,10,9,13.13,15,2.73,5.14,1,11.69-2.87,15.78-3.58,3.64-9.12,4.45-14,3.53a38,38,0,0,1-17.94-8.86c.91-2.54,1.85-5.08,2.79-7.62,4.87,4.4,10.48,8.65,17.19,9.5A6.5,6.5,0,0,0,609,122.1c.82-2.31-.14-4.79-1.61-6.6-3.65-4.69-9-7.92-11.81-13.29C592.74,97.1,594,90.44,597.74,86.15Z"/><path class="cls-2" d="M324.08,84.7c5.94-1.83,12.74-1.4,18,2.09,6.65,4.33,10.38,11.85,12.5,19.28,2.1,7.19,1.56,15.63-3.4,21.56s-12.91,9.12-20.59,9.57c-8.1.43-15.48-4.81-19.34-11.68-4.43-7.83-7.56-17.45-4.58-26.34,2.58-7.63,10-12.36,17.4-14.48m2.1,7C321.3,93,316.4,96.11,315,101.19c-1.74,6.23.55,12.72,3.26,18.32,2.41,4.9,6.66,9.69,12.47,10,5.26.13,10.83-2.12,14-6.4s2.55-10.23,1.07-15.12c-1.73-5.28-4.1-10.76-8.61-14.26A12.43,12.43,0,0,0,326.18,91.73Z"/><path class="cls-2" d="M650.1,98.93c7.28,4.15,15.67,6.95,21.57,13.13,8.23,8.66.43,24.78-11,25.26-6.58.48-12.47-2.95-18-5.94q-4.49,8.49-9,17l-7.52-4c8-15.16,16.06-30.27,24-45.45m4.22,10.26c-2.76,5.31-5.6,10.57-8.35,15.88,3.46,1.77,6.87,3.91,10.8,4.49,7.06,1.33,12.76-9,7.6-14.1C661.6,112.55,657.78,111.06,654.32,109.19Z"/><path class="cls-2" d="M248.9,122.82c11.13-6.47,22.36-12.77,33.44-19.32,1.31,2.09,2.54,4.22,3.79,6.35-4.38,2.52-8.8,5-13.12,7.6q11.08,19.08,22,38.26c-2.46,1.38-4.9,2.78-7.35,4.18q-11-19.14-22-38.27c-4.39,2.4-8.58,5.15-13.06,7.37C251.16,127.05,250.14,124.86,248.9,122.82Z"/><path class="cls-2" d="M683.4,148.89q8.15-11,16.27-22,3.45,2.51,6.89,5.06c-6.54,8.87-13.13,17.71-19.64,26.61-2.17,3-3.94,7-2.41,10.7a16.45,16.45,0,0,0,10.2,8.52c4.49,1.31,8.79-1.65,11.32-5.14,6.58-8.83,13.09-17.72,19.64-26.57l6.86,5.06c-6.67,9-13.3,18-20,27-3.23,4.39-8.32,7.65-13.89,7.68-6.73.11-12.86-3.64-17.49-8.25-4-4-6.34-9.91-5.13-15.56C677,156.92,680.44,152.93,683.4,148.89Z"/><path class="cls-2" d="M218.32,144.78c4.58-5.45,11.25-8.72,18.06-10.42.66,2.38,1.33,4.76,2,7.14-5.42,1.68-11.5,3.63-14.72,8.67-2.48,4.1,1.43,9.67,6.06,9.27,7-.3,13.74-4.16,20.9-2.75,8,1.87,13,11.94,9.05,19.36-4.16,7.79-12.31,12.89-20.61,15.3q-2.42-3.22-4.83-6.42c6.42-1.8,13.21-4.29,17.47-9.71,3.72-4.27-.57-11.36-6-10.48-6.38.39-12.43,3.64-18.91,2.77-5.33-.62-9.74-4.81-11.47-9.76C213.78,153.27,215.35,148.29,218.32,144.78Z"/><path class="cls-2" d="M471.18,164.09c15.47,9,30.79,18.34,46.23,27.42-15.29,9.47-30.75,18.67-46,28.16-12.56-7.53-25-15.23-37.53-22.8.06,4.46-.15,8.91.06,13.36.22,2.35,2.12,4.48,1.36,6.91-.69,1.64-2.08,2.85-3.18,4.2-1.49-1.49-3.58-2.9-3.68-5.21-.45-3,3-4.95,2.52-8,.06-4.35,0-8.7,0-13-1.93-1.2-3.86-2.38-5.78-3.58C440.49,182.39,455.88,173.32,471.18,164.09Z"/><path class="cls-2" d="M187,171.82q3.1-2.94,6.28-5.8,17.44,18.85,35,37.62c-2,2-4.13,3.93-6.27,5.83Q204.53,190.6,187,171.82Z"/><path class="cls-2" d="M715.64,204.66c12.3-12,24.37-24.18,36.63-36.19,5,5.39,10.57,10.18,15.16,15.9,2.87,3.68,5.49,8.49,3.9,13.26-1.8,4.73-6.38,8.83-11.63,8.79-2.23,0-4.19-1.09-6.13-2,1.77,3.21,3.5,7,2.16,10.67-2.19,6-8.63,10.67-15.15,9.59-4.88-.66-9-3.8-12.32-7.21-4.2-4.27-8.43-8.52-12.62-12.8m27.49-15.21c3.32,3.13,6.16,6.9,10.15,9.24,4.81,3.11,11.89-3.25,9.16-8.34-2.14-4.31-6.06-7.31-9.25-10.78-3.37,3.27-6.71,6.58-10.06,9.88m-16.38,16.21c3.6,3.47,6.68,7.74,11.25,10,5.64,2.79,13-4.29,10-10-2.27-4.56-6.47-7.7-9.95-11.28C734.36,198.17,730.61,202,726.75,205.66Z"/><path class="cls-2" d="M167,191.88q3.15-3.69,6.35-7.32c1.49,9.79,3,19.57,4.45,29.37,11.6,1.26,23.2,2.57,34.81,3.83-2.11,2.47-4.23,4.92-6.31,7.41-9.44-.85-18.84-2-28.27-2.92.32,2.42-1.15,5.69,1.14,7.41,4.42,3.83,8.89,7.61,13.3,11.46q-2.78,3.24-5.59,6.44Q167.47,230.72,148,213.94c1.84-2.16,3.7-4.31,5.55-6.45,6.15,5.27,12.23,10.61,18.41,15.84Q169.55,207.6,167,191.88Z"/><path class="cls-2" d="M439.68,205.8q15.81,9.52,31.63,19,15.74-9.53,31.52-19,0,8.47,0,17-15.78,9.49-31.54,19c-10.54-6.31-21-12.74-31.58-19C439.63,217.16,439.68,211.48,439.68,205.8Z"/><path class="cls-2" d="M751.86,243.44q20.55-15.48,41.06-31l5.13,6.76c-11.7,8.93-23.49,17.74-35.22,26.64,4.36,5.79,8.74,11.55,13.08,17.35-1.92,1.46-3.84,2.92-5.74,4.4C764,259.62,758,251.49,751.86,243.44Z"/><path class="cls-2" d="M324.34,231.12c2.3-5.88,4.47-11.8,7-17.59,2.19,5.84,4.24,11.73,6.37,17.59,6.11.14,12.22.08,18.32.36-4.85,3.74-10.35,6.78-14.85,10.87,1.53,6.14,3.76,12.09,5.45,18.19-5-3.56-10-7.28-15-10.89-5.23,3.59-10.35,7.35-15.67,10.8,1.84-6.06,3.79-12.08,5.67-18.13-5.05-3.65-10.14-7.24-15.17-10.9C312.44,231.25,318.39,231.41,324.34,231.12Z"/><path class="cls-2" d="M621.23,213.37c2.27,5.88,4.31,11.84,6.47,17.75,6.11.11,12.24.16,18.36.29-5,3.63-10.06,7.13-15.09,10.71,1.88,6.14,3.8,12.26,5.64,18.42-5-3.55-10-7.27-15-10.89-5.24,3.58-10.35,7.35-15.68,10.8,1.84-6.06,3.79-12.09,5.68-18.13-5.06-3.64-10.14-7.23-15.17-10.9,5.94-.17,11.9,0,17.84-.32C616.57,225.17,619,219.3,621.23,213.37Z"/><path class="cls-2" d="M133.87,232.7l6,3.89c-3.7,5.82-7.52,11.56-11.27,17.35,3.89,2.51,7.75,5.05,11.63,7.56,3.56-5.4,7-10.89,10.67-16.19,1.94,1.3,3.9,2.6,5.86,3.89q-5.26,8.1-10.56,16.2l13.41,8.75q5.63-8.65,11.29-17.31c2,1.34,4,2.67,6,4Q169,273,161.1,285.22c-14.43-9.3-28.76-18.74-43.15-28.1Q125.9,244.91,133.87,232.7Z"/><path class="cls-2" d="M777.81,280.13l44-26.72c1.47,2.4,2.94,4.81,4.44,7.21-14.66,9-29.31,17.94-44.06,26.75C780.72,284.94,779.26,282.54,777.81,280.13Z"/><path class="cls-2" d="M454.32,262a209.43,209.43,0,1,1-67.77,17.08A209.75,209.75,0,0,1,454.32,262m15.52.28c.48,20.61,0,41.24.05,61.85-.76,13.31-.49,26.64-.65,40h1.18c0-10.68-.12-21.35-.12-32,.52-23.26-.37-46.54.2-69.8h-.66M459.47,364.86c1-.2,2.69.06,2.11-1.61-3-33-6.36-66-9.57-99,2.36,33.55,5.08,67.08,7.46,100.63m26.41-82.8c-2.4,27.37-5.56,54.7-7.75,82.08l2,.75c2.3-28.93,4.39-57.87,6.56-86.81a65.06,65.06,0,0,0,.47-12.86c.16,5.65-.69,11.24-1.3,16.84m19.52-16.75c-4.56,28-10,55.92-14.87,83.9-.89,5.73-2.44,11.37-2.67,17.18,1.29-2.06,1.65-4.5,2-6.85,5-31.44,11-62.73,15.51-94.23M442.67,317c3,16.56,5.23,33.27,8.66,49.73a4.88,4.88,0,0,0,.48-2.68c-5.57-31.64-11.59-63.21-16.88-94.9,2,16,5.24,31.89,7.74,47.85m79.77-45.69c-8.28,31.37-17.26,62.56-25.76,93.88q-1.29,2.82,1.7,2.16c3.68-13.63,6.93-27.38,10.47-41.05,4.46-18.35,9.58-36.54,13.59-55m-104.59,2.78c7.35,31.39,15.8,62.52,23.42,93.85l2.38.08c-8.37-31.37-17.32-62.59-25.8-93.93m-16.15,7a81.5,81.5,0,0,0,2.66,8.33q14,39.65,28,79.28a5.56,5.56,0,0,0,2,2.7c-.4-1.55-.86-3.07-1.4-4.56q-12.1-33-24.17-66.11c-1.47-4.29-3.53-8.38-4.33-12.87-1-2.36-1.65-4.62-2.75-6.77m135.81,1.07c-7,19.27-14,38.49-21.06,57.73-3.55,10.28-7.87,20.32-10.9,30.77,1.66-1.47,2.29-3.62,3-5.63,9.5-27.67,19.79-55.09,29-82.87m-23,88.91c-1.17,1.4-.2,2.32,1.12,3.07,13.33-30,27-59.84,40-90q-20.53,43.46-41.15,86.89M404,329.76c6.86,15,13.27,30.31,20.41,45.22l1.74-.85c-2.89-7.36-6.71-14.33-10-21.53-10.12-21.47-20.42-42.86-30.41-64.39,5.51,14.08,12.22,27.67,18.22,41.55M524.74,373.2a20.89,20.89,0,0,0-2.19,5.18,25.9,25.9,0,0,0,3.85-5.54c14.6-26.28,29.6-52.35,44.12-78.67-15.41,26.26-30.43,52.74-45.78,79m-152.95-74c13.69,25.39,28.29,50.29,42.22,75.55a13.26,13.26,0,0,0,3.65,4.71,35.47,35.47,0,0,0-2.36-5c-14.55-25.07-29-50.22-43.51-75.28m158.09,82.52L532,383c17.75-26.69,36-53.05,53.63-79.81-18.7,26.1-37.06,52.45-55.75,78.56m-174.2-75.51c17.15,26.22,35.07,51.95,52.4,78.06l2.22-1c-18.21-25.69-36.32-51.45-54.62-77.07M541.6,383.09a45.1,45.1,0,0,0-4,5.37,11.81,11.81,0,0,0,3.91-3.32c18.61-23,37.65-45.72,56.15-68.84-18.83,22.15-37.34,44.58-56.09,66.79m-197-62.82c17.56,22.3,36,43.94,53.76,66.07a13.3,13.3,0,0,0,4.19,3.78c-4.36-6.77-10.17-12.46-15.14-18.78-14.28-17-28.49-34.09-42.81-51.07m-18,6.23c9.84,10.69,20.15,20.95,30.17,31.48,12.7,13,25.1,26.3,38,39.11.45-1.27.89-2.75-.49-3.6q-33.87-33.47-67.67-67m218,66.67,1.29,1.9c21.63-22.23,43.26-44.47,64.57-67-22.1,21.54-43.87,43.44-65.86,65.1m9.72,4.69a16,16,0,0,0-3.24,3.66,28.45,28.45,0,0,0,5.74-4.13c20.82-18.21,42.13-35.87,62.76-54.29-21.81,18.18-43.45,36.57-65.26,54.76M320.85,345.17c21.34,18.56,42.91,36.86,64.29,55.38a25.26,25.26,0,0,0,4.31,2.91,22.48,22.48,0,0,0-5-5.11c-21.3-17.62-42.17-35.76-63.64-53.18m235.89,62.27,1.58,1.44c8.64-5.58,16.71-12.06,25.14-18C601.15,378,619,365.25,636.59,352.19,609.9,370.5,583.34,389,556.74,407.44M306.8,356.18c25.16,18.5,50.5,36.74,75.75,55.1l1.2-2c-25.69-17.63-51.12-35.65-76.95-53.08m262.3,55.48c-2.47,1.41-5.15,2.64-7,4.93a35.83,35.83,0,0,0,6.6-3.33c24.56-14.75,49.41-29,73.87-44-24.57,14-49,28.28-73.52,42.36M300.75,373.15c15.48,9.08,30.89,18.29,46.35,27.42,10.57,6,20.76,12.76,31.57,18.34a8.14,8.14,0,0,0-3-2.85c-14.19-8.1-28.31-16.32-42.47-24.48-10.87-6.07-21.4-12.76-32.47-18.43m337.92,17.13q-31.86,14.6-63.68,29.2c-2.66,1.26-5.51,2.21-7.89,4,.1.5.31,1.51.41,2,28.41-13.69,56.68-27.68,85.13-41.27-4.81,1.66-9.34,4-14,6.08M285.84,385.2c29.49,14,58.61,28.71,88.14,42.57.9-2.79-2-3.21-3.72-4.16-28.21-12.66-56.09-26.06-84.42-38.41M642,406.59q-30.76,11.1-61.51,22.27c-3.49,1.29-7.15,2.29-10.31,4.34,4-.31,7.67-2.24,11.44-3.57,25.35-9.44,50.61-19.09,76-28.41-5.35,1.36-10.42,3.58-15.62,5.37m-359-3c4.27,1.38,8.57,2.73,12.76,4.39q33.07,12.43,66.15,24.83a65.94,65.94,0,0,0,9.15,3.06A11.41,11.41,0,0,0,365.9,433c-26.57-9.41-52.94-19.36-79.56-28.63l.94-1.13c-1.45.13-2.91.25-4.36.33M417,501.5c20.47,6.9,40.13,19.17,51.67,37.88.11-30.11,0-60.22.05-90.32.22-2-.76-3.67-1.82-5.21-12.12-18.21-29.56-33-49.9-41.18q-.09,49.41,0,98.83m59.13-58.9c-1.26,2-3,4-2.68,6.48.05,30.1-.06,60.19.06,90.29,11.58-18.7,31.22-31,51.69-37.89q0-49.37,0-98.73c-19.94,7.84-36.95,22.29-49.08,39.85M406,408.84c0,33.35.05,66.7,0,100.05,15.38-.33,29.27,7.42,42.58,14.2-11-8.22-23.78-13.76-36.62-18.47q0-46.83,0-93.65L406,408.84M530.34,411q0,46.82,0,93.61c-12.83,4.73-25.59,10.23-36.6,18.47,13.3-6.77,27.17-14.52,42.55-14.21-.11-33.36,0-66.71-.08-100.07l-5.87,2.2m-135.92,3.55q0,53.12,0,106.23c22.22-2.33,43.6,6.4,63.38,15.47-15.5-13.93-36.13-20.82-56.52-23.4q-.06-47.53,0-95.06c-2.28-1.09-4.55-2.17-6.83-3.24M541,417.77c0,31.7,0,63.39,0,95.09-20.38,2.6-41.07,9.44-56.52,23.45,19.75-9.16,41.16-17.83,63.39-15.51q0-53.13,0-106.24L541,417.77m32.84,22.92c.07.57.22,1.71.3,2.28,31.54-8.7,62.94-17.92,94.48-26.64-31.68,7.76-63.16,16.36-94.78,24.36M274.74,419.33c30.12,8.27,60.11,17.06,90.2,25.45a2.12,2.12,0,0,0,3.24-1.43c-12.79-3.43-25.64-6.66-38.45-10-18.35-4.59-36.55-9.82-55-14m378.85,17.75c-24.78,4.25-49.55,8.58-74.34,12.81a9,9,0,0,0-3.86,1.58c7.56-.61,14.94-2.59,22.42-3.77,24.28-4.41,48.52-9.09,72.83-13.3-5.75.4-11.35,1.87-17,2.68m-385.85-.63c20.35,3.09,40.51,7.38,60.79,10.93,12.62,2.14,25.13,5,37.82,6.67a7.1,7.1,0,0,0-3.51-1.57q-36.43-6.24-72.86-12.57c-7.4-1.21-14.75-2.9-22.24-3.46m389,16.72q-39.65,3-79.28,6.1l.2,2.3q25.56-2.52,51.12-5.11c14-1.2,28-3.19,42-3.87a79.29,79.29,0,0,0-14,.58m-389.91,1.42c6.33.05,12.56,1.22,18.86,1.66,26.29,2.57,52.57,5.32,78.87,7.83,0-.58-.09-1.75-.11-2.33-28.27-2.06-56.51-4.4-84.78-6.46a87.59,87.59,0,0,0-12.84-.7m310.36,15.06a11.66,11.66,0,0,0,5.49.82c11.35-.24,22.71.08,34.05-.51,18-.06,36-.07,54-.29-28-.57-56-.18-84-.38a59.45,59.45,0,0,0-9.53.36m-307.55,3c31.51.51,63,.08,94.54.41v-1.26c-13.17.24-26.35-.09-39.51.52-18.34.1-36.69,0-55,.33m308.07,5.55.2,2.35c25.9,1.86,51.79,4,77.69,5.93,6.35.09,12.61,1.48,19,1.24-32.3-2.93-64.56-6.49-96.86-9.52m-306.1,11.52c5,.37,10.06-.28,15.08-.69q39-3,78.1-6c0-.58-.08-1.73-.11-2.3-31,2.86-62,6.58-93.07,9M576,488.2a6.81,6.81,0,0,0,3.47,1.6c23.43,4,46.83,8.09,70.25,12.11,8.3,1.37,16.55,3.2,24.94,3.94-15.46-2.23-30.73-5.56-46.11-8.23-17.53-3.06-35-6.8-52.55-9.42m-227.16,5.57c-25.7,4.7-51.37,9.57-77.09,14.16,16.06-2.28,32-5.46,48-8.09,15.53-2.83,31.18-5.11,46.64-8.26l-.27-.79c-5.83.55-11.52,2.07-17.29,3m225.58,3,.52,2.22c12.16,3.62,24.58,6.42,36.84,9.74,18.67,4.66,37.18,10,55.95,14.23-31.18-8.45-62.13-17.78-93.31-26.19M276.64,525c7.45-1.14,14.6-3.6,21.92-5.32,23.28-6,46.54-12.11,69.84-18.07-.08-.57-.23-1.71-.31-2.28-30.54,8.33-60.87,17.48-91.45,25.67m294.67-18.58c2.28,2.51,5.87,2.93,8.87,4.19l44,16c11.84,4.07,23.43,8.93,35.44,12.48-24.79-8.94-49.38-18.46-74.08-27.62-4.76-1.68-9.36-3.83-14.27-5m-203,3.4c-27.9,10.3-55.64,21-83.58,31.2,5.11-1.22,9.93-3.34,14.88-5.07q31.13-11.25,62.25-22.55c3.46-1.27,7.05-2.3,10.22-4.21a17.08,17.08,0,0,0-3.77.63m200.35,4.95-.74,1.71c3.88,2.51,8.33,4,12.45,6,24.37,11.34,49,22.13,73.18,33.87-1.29-3.19-5.09-3-7.72-4.31-25.77-12.34-51.29-25.22-77.17-37.29m-279,43.34c5.93-2.19,11.52-5.15,17.31-7.68l60.29-27.65c2.61-1.25,5.41-2.18,7.76-3.89l-.24-2.07c-28.44,13.62-56.72,27.59-85.12,41.29m273.83-34.7a8.29,8.29,0,0,0,3,2.84c25.38,14.5,50.6,29.3,76,43.75-21.28-13-42.93-25.48-64.35-38.29-4.9-2.74-9.51-6-14.66-8.3m-188.86,4.91c-23.95,14.33-48.07,28.38-72,42.76,24.3-13.52,48.17-27.81,72.36-41.52a19.66,19.66,0,0,0,5.11-3.8,25.32,25.32,0,0,0-5.48,2.56m185,2.71-1.24,2c25.76,17.66,51.22,35.75,77.13,53.19C610.4,567.7,585,549.41,559.74,531M362.26,548.85c-17.83,13.11-36,25.8-53.61,39.18,25.51-17.65,51.14-35.16,76.46-53.06l-.75-1.76c-7.74,4.62-14.67,10.52-22.1,15.64M552.65,539c6.64,6.8,14.44,12.37,21.56,18.66,16.14,13.41,32,27.21,48.32,40.37-21.85-19-43.9-37.69-65.76-56.64a12.19,12.19,0,0,0-4.12-2.39m-170,8.29q-31.89,27.43-63.8,54.86c4.37-3.19,8.38-6.84,12.53-10.3q26.21-22,52.36-44c2.61-2.23,5.59-4.18,7.41-7.17-3.21,1.68-5.77,4.28-8.5,6.61m164.23.06c6.39,7.09,13.56,13.48,20.22,20.34,15.59,15.39,31.1,30.86,46.71,46.22-6.86-7.74-14.32-14.94-21.42-22.47-15-15.39-29.71-31-44.8-46.25l-.71,2.16m-150.84,0q-16.73,17.36-33.48,34.69c-7.7,8.25-16,16-23.33,24.56,6.9-6.08,13.13-12.88,19.78-19.24,12.89-13,26.13-25.57,38.82-38.71l-1.79-1.3m143.72,4.7c3.45,5.94,8.59,10.66,12.76,16.08,15.07,17.93,30,36,45.17,53.83-17.6-22.24-35.95-43.89-53.74-66a16.79,16.79,0,0,0-4.19-3.92m-136.63,2.15c-19.72,24.35-39.74,48.46-59.48,72.8,20.53-23.95,40.54-48.35,60.9-72.45l-1.42-.35m128.74,4.42c18.77,26.84,37.79,53.52,56.73,80.24C571,612.3,552.92,586,535.18,559.55c-.54-1.61-2.09-1.09-3.36-.91m-121.57.63c-17.71,26.65-35.95,53-53.53,79.69,18.64-26.06,37-52.34,55.62-78.41l-2.09-1.28m114.4,3.44c2.88,7.21,7.54,13.55,11.18,20.39,11.3,19.31,22.16,38.9,33.72,58.06-13.89-25.06-28.11-49.94-42-75a14.29,14.29,0,0,0-2.85-3.48m-108,5.36c-14.56,26-29.28,52-43.84,78,15.11-25.28,29.44-51,44.37-76.43a20.78,20.78,0,0,0,2.51-5.83,25.25,25.25,0,0,0-3,4.22m99.2-.05q20.34,43,40.76,86c-4.36-11-9.59-21.68-14.3-32.55-7.84-17.49-15.6-35-23.47-52.47-.47-1.48-1.46-1.82-3-1m-128,87.14c13.74-28.55,27.17-57.26,40.77-85.87l-2.14-.92c-12.84,29-26,57.75-38.63,86.79m120.08-84.37c2.14,7.63,5.32,14.92,7.89,22.41,8.2,22.64,16.67,45.17,24.68,67.88-2.33-8.42-5.64-16.51-8.42-24.78Q521,605,510,573.64a6.54,6.54,0,0,0-2-2.85m-209,1.41c-1.6.28-1.06,2.77.53,1.91,1.59-.3,1.06-2.77-.53-1.91m134.55,5.68c-10.13,29.08-20.61,58-30.64,87.16,7.4-19.89,14.59-39.85,21.9-59.76,3.9-11.27,8.59-22.28,12-33.7-1.93,1.56-2.4,4.09-3.23,6.3m65.35-3.19c1.12,6,3.2,11.74,4.67,17.64q9.9,35.79,19.8,71.58c.72,2.31.51,4.92,2,7,.35-2.42-1.26-4.47-1.7-6.76C516,634,508.4,603.78,500.72,573.63l-1.9,1.06m-54.95.33c-3,10.64-5.44,21.44-8.24,32.15-5.21,21-10.77,41.89-15.77,62.93,8.78-31.79,17.68-63.56,26.3-95.39l-2.29.31M452,585.07c-4.11,24.66-8.33,49.3-12.42,74a75.86,75.86,0,0,0-1.64,12.1c.7-6.71,2.28-13.27,3.33-19.92q6.32-35.06,12.63-70.12a35.32,35.32,0,0,0,.42-5.22c-1.58,2.81-1.78,6.09-2.32,9.2m38.11-8.59c5.81,32.2,11.65,64.4,17.32,96.63-5-32.37-10.79-64.62-16.12-96.94l-1.2.31m-9.19,6.73c3.27,31.62,6,63.3,9.42,94.91-2.28-28.62-4.29-57.25-6.5-85.87-.46-5.16-.51-10.38-1.49-15.48-2.55,1.25-1.52,4.2-1.43,6.44M462,577.76c-1.91,25.8-3.92,51.6-5.79,77.4-.16,7-1.82,13.94-1,21-.34-7.25,1.3-14.35,1.68-21.56,2.45-25.59,5-51.17,7.44-76.76l-2.3,0m9.77.28c.29,33-.09,66.05.39,99.08.2-33,.56-66,.85-99l-1.24,0M332.65,613.32a39.05,39.05,0,0,0,6.17-6.42,50.62,50.62,0,0,0-6.17,6.42"/><path class="cls-2" d="M791.9,304.09l46.65-21.72,3.59,7.7c-7.28,3.47-14.69,6.68-21.88,10.33,10.19,2.84,20.4,5.61,30.61,8.4q2,4.38,4.06,8.75-14.32-3.9-28.59-8c-6,10-11.66,20.17-17.91,30-1.36-2.9-2.71-5.81-4.08-8.7q7.08-12.25,14.26-24.43-2.88-1.41-5.76-2.78c-5.76,2.78-11.58,5.42-17.36,8.13Q793.69,307.95,791.9,304.09Z"/><path class="cls-2" d="M106,284.34c5.31-3.7,13-1.07,16.5,3.91,1.89,2.55,1.65,5.84,1.35,8.83,2.16-2.77,5-5.56,8.67-5.78,6.55-.29,13.5,4.23,14.76,10.89,1,4.81-.48,9.7-2.55,14-2.54,5.38-5.13,10.74-7.6,16.15-15.63-7-31-14.64-46.56-21.81,2.17-4.95,4.54-9.82,6.87-14.71,2.13-4.28,4.58-8.67,8.56-11.5m2.24,8.47c-3.89,3.39-5.35,8.59-7.64,13,4.26,2,8.49,4,12.79,6,1.48-3.41,3.3-6.68,4.55-10.19.77-2.28,1.19-5.15-.55-7.11-2.19-2.44-6.33-4.07-9.15-1.7m18.87,8.67c-3.72,3.64-5.18,8.83-7.51,13.34,4.88,2.28,9.73,4.64,14.65,6.85,1.82-4.48,4.72-8.65,5.41-13.52C140.74,301.85,131.67,297,127.11,301.48Z"/><path class="cls-2" d="M237.9,322.55c2.4-5.91,4.55-11.93,7.13-17.76q3.16,8.85,6.36,17.67c6.11.05,12.22.16,18.34.23-5,3.68-10.06,7.16-15.09,10.74,1.88,6.16,3.8,12.29,5.65,18.45-5-3.45-9.69-7.32-14.77-10.64-5.61,2.9-10.55,7.24-15.9,10.69,1.84-6.11,3.78-12.19,5.71-18.27-5-3.67-10.1-7.11-15-10.9C226.19,322.58,232.05,322.61,237.9,322.55Z"/><path class="cls-2" d="M703.17,304.63c2.35,5.82,4.32,11.77,6.48,17.66,6.09.11,12.19.14,18.28.28-4.9,3.7-10,7.14-15,10.7,1.87,6.18,3.81,12.34,5.68,18.52q-7.51-5.49-15-11l-15.75,11c1.91-6.11,3.85-12.22,5.75-18.34-5.05-3.61-10.15-7.15-15.1-10.89,5.91-.11,11.83,0,17.75-.23C698.51,316.41,700.87,310.53,703.17,304.63Z"/><path class="cls-2" d="M82.35,331.28c2.35.92,5.35,1.06,6.91,3.31,9.18,11.53,18.31,23.08,27.53,34.58q4-12.69,7.91-25.39l6.93,2.11c-3.52,11.79-7.29,23.49-10.91,35.25-2.35-.89-5.27-1-6.83-3.27-9.23-11.5-18.4-23.05-27.65-34.53q-3.7,12-7.46,24l-7-2.18Q77.07,348.21,82.35,331.28Z"/><path class="cls-2" d="M810.47,344.72q27.51,1.81,55,3.64c.86,2.94,1.74,5.88,2.62,8.82-14.68,11.06-29.28,22.21-44,33.2-.62-2.92-2.39-5.88-2.14-8.82,3.76-3.12,7.86-5.82,11.76-8.77-1.83-6.26-3.75-12.48-5.56-18.73-5-.31-10.1-.52-15.15-.78-.85-2.85-1.7-5.71-2.54-8.56m25.4,9.58,4.23,14.17c6.33-4.45,12.56-9,18.93-13.41C851.3,355.12,843.58,354.6,835.87,354.3Z"/><path class="cls-2" d="M64.18,386.45l3.21-1.12a11.1,11.1,0,0,0,7.34,6.61c.32-1.35.65-2.7,1-4L84.35,390c-.68,2.69-1.34,5.39-2,8.09-4.48-1.32-9.32-1.82-13.38-4.24C66.29,392.25,65.08,389.26,64.18,386.45Z"/><path class="cls-2" d="M855.49,398c5.19-5.37,15.22-5.87,20.06.25,5.66,7.07,5.33,17,3.44,25.38-2.44-.52-4.87-1.06-7.31-1.57,1.06-5.6,2.33-11.95-.7-17.16-2.38-4-8.84-3.32-10.81.7-3.14,6-3,13.34-6.9,19-3.11,4.56-9.26,6-14.45,5s-8.65-5.54-10.29-10.24A38,38,0,0,1,827.44,399c2.66-.41,5.32-.82,8-1.25-1.52,6.81-2.76,14.58.81,21,2.26,3.89,8.52,3.77,10.79,0C850.84,412.16,850.08,403.61,855.49,398Z"/><path class="cls-2" d="M76.14,410.85a39.68,39.68,0,0,1,23,2,20.91,20.91,0,0,1,13,16.41c1,8.41-.71,18.08-7.45,23.83-6,5.11-14.42,5.92-22,5-7-.73-14.44-3.25-18.92-9-5.26-6.73-5.27-16.13-3-24a20.75,20.75,0,0,1,15.34-14.22m.9,8.87C66,421.81,63,438.41,71.62,445c4.86,3.6,11.16,4.39,17,4.45,5.21,0,11.06-1.57,14-6.21,3.92-6.39,3.42-16.4-3.54-20.52C92.56,418.92,84.39,418.2,77,419.72Z"/><path class="cls-2" d="M198.69,435.81c2.4-5.92,4.59-11.93,7.11-17.79,2.16,5.88,4.25,11.79,6.38,17.68,6.11,0,12.22.14,18.32.25-4.79,3.67-9.94,6.86-14.7,10.58,1,6.33,3.66,12.4,5.38,18.61-5.05-3.56-10-7.24-15-10.94-5.26,3.54-10.42,7.22-15.61,10.85,1.55-6.14,3.7-12.12,5.53-18.18-5-3.66-10.11-7.07-15-10.88C187,435.85,192.85,435.81,198.69,435.81Z"/><path class="cls-2" d="M729.73,438.8c2.41-5.91,4.58-11.91,7.12-17.77q3.2,8.82,6.35,17.67c6.1.1,12.21.12,18.31.3-4.93,3.61-9.94,7.13-15,10.6,1.74,6.21,3.79,12.34,5.6,18.53q-7.5-5.38-14.89-10.91c-5.3,3.58-10.49,7.31-15.76,10.92,1.82-6.11,3.79-12.16,5.69-18.24-5-3.65-10.08-7.1-15-10.85C718.05,438.8,723.89,438.88,729.73,438.8Z"/><path class="cls-2" d="M831.67,447.61c17.11-.87,34.22-1.8,51.33-2.68.15,2.83.3,5.66.43,8.49-17.12.84-34.24,1.82-51.36,2.65C831.93,453.24,831.78,450.42,831.67,447.61Z"/><path class="cls-2" d="M81.17,537.86c4.24-.73,8.84-2.3,13-.25,5,2.21,6.28,9.62,2.56,13.53-2.46,2.89-6.38,3.59-9.9,4.26s-7.64,1.73-11.18,0c-5-2.07-6.8-9.41-3.11-13.43C74.65,539.42,78,538.45,81.17,537.86Z"/><path class="cls-2" d="M219.7,554.54c2.37-5.8,4.44-11.73,7-17.45,2.59,5.62,4.21,11.64,6.53,17.39,6.12,0,12.23.14,18.35.24-5,3.6-10.07,7.16-15.12,10.71,1.85,6.16,3.81,12.29,5.64,18.46q-7.5-5.39-14.89-10.9c-5.3,3.53-10.44,7.28-15.71,10.85,1.74-6.08,3.72-12.1,5.64-18.12-5-3.73-10.09-7.2-15.05-10.92C208,554.56,213.83,554.66,219.7,554.54Z"/><path class="cls-2" d="M713.17,556.06c2.3-6,4.6-11.93,7.05-17.83,2.08,5.93,4.24,11.83,6.36,17.75,6.14.12,12.27.17,18.42.28-5,3.61-10.11,7.15-15.15,10.73,1.88,6.12,3.78,12.24,5.65,18.37-5.08-3.5-10-7.24-15-10.85-5.24,3.62-10.42,7.34-15.71,10.89,1.87-6.09,3.82-12.15,5.71-18.23-5.07-3.6-10.09-7.25-15.18-10.82C701.29,556.11,707.23,556.2,713.17,556.06Z"/><path class="cls-2" d="M290.08,632.89c2.18,5.9,4.29,11.82,6.4,17.75,6.11.15,12.22.14,18.33.32-4.94,3.64-10,7.13-15,10.66,1.84,6.18,3.8,12.34,5.66,18.52-5.05-3.62-10-7.39-15.08-10.95-5.17,3.71-10.42,7.31-15.64,10.94,1.88-6.1,3.81-12.18,5.74-18.26-5-3.66-10.13-7.17-15.07-10.91q8.82-.16,17.65-.17C285.37,644.81,287.73,638.85,290.08,632.89Z"/><path class="cls-2" d="M653.27,636.89c2.41,5.83,4.26,11.88,6.6,17.74,6,0,12.07.07,18.11.27-4.89,3.72-10,7.09-15,10.74,1.93,6.12,3.88,12.24,5.63,18.42-4.95-3.69-9.95-7.31-14.92-11-5.25,3.65-10.48,7.33-15.74,10.95,1.86-6.14,3.92-12.21,5.69-18.38-5.08-3.55-10.13-7.14-15.11-10.83,5.9,0,11.81-.16,17.71-.11C648.63,648.79,651,642.85,653.27,636.89Z"/><path class="cls-2" d="M811.18,641.75c3.29-3.33,10.12-.23,9.74,4.43-.59,3.51-2.71,6.48-4.23,9.64q-5.28-2.69-10.54-5.41C807.75,647.49,808.87,644.2,811.18,641.75Z"/><path class="cls-2" d="M405.78,714.13c2.36-6,4.64-12,7.08-17.88,2.1,5.92,4.28,11.8,6.33,17.75,6.16.11,12.31.18,18.47.26-5,3.64-10.12,7.15-15.15,10.77,1.89,6.1,3.79,12.21,5.63,18.34-5-3.5-9.95-7.17-14.85-10.84-5.32,3.54-10.46,7.33-15.78,10.87,1.83-6.09,3.8-12.14,5.69-18.21-5.06-3.65-10.19-7.19-15.16-11C394,714.25,399.86,714.13,405.78,714.13Z"/><path class="cls-2" d="M542.21,698.71c2.39,5.8,4.33,11.77,6.51,17.67,6.1,0,12.2.15,18.31.21-4.92,3.7-10,7.17-15,10.7,1.83,6.2,3.8,12.36,5.66,18.56q-7.51-5.51-15-11c-5.23,3.65-10.44,7.31-15.69,10.93,1.85-6.12,3.82-12.19,5.7-18.29-5.06-3.64-10.19-7.17-15.14-11,5.88.05,11.76-.13,17.65-.06C537.61,710.61,539.87,704.64,542.21,698.71Z"/><path class="cls-2" d="M148.38,704.6c4.9-1.61,9.77-3.28,14.7-4.81-2.89,4.26-6,8.41-8.88,12.65Q151.2,708.59,148.38,704.6Z"/><path class="cls-2" d="M764.51,718.11c4.68,2,9.46,3.7,14.11,5.75a31.43,31.43,0,0,1-5.94,7.32C769.69,727,767.27,722.44,764.51,718.11Z"/><path class="cls-2" d="M191,734.68c5.54-2.53,12.14,2.68,11.77,8.52-.13,3.62-2.56,6.56-5.09,8.92-3,2.79-5.78,6.37-10,7.1-5.59,1.24-11.5-4.46-10.11-10.11.63-3.47,3.28-6,5.69-8.38S187.89,735.85,191,734.68Z"/><path class="cls-2" d="M227.13,777.55c2.45-3.08,4.84-6.2,7.23-9.32,2.57,2.1,5.57,3.8,7.6,6.48,3,4.17-2.48,11.07-7.16,8.4C232,781.69,229.61,779.49,227.13,777.55Z"/><path class="cls-2" d="M280.87,821.21c3.73-3.57,7.4-7.21,11.23-10.67-.79,5.08-1.73,10.14-2.57,15.22C286.63,824.27,283.75,822.74,280.87,821.21Z"/><path class="cls-2" d="M607.58,829.76c3.33,4,6.53,8,9.77,12.08-3.06,1.14-6.09,2.3-9.16,3.4C608,840.08,607.71,834.92,607.58,829.76Z"/><path class="cls-2" d="M377.6,858.48c2.62-4.47,5.29-8.92,8-13.31.56,5.15,1,10.31,1.46,15.46Z"/></g><g id="_eea505ff" data-name="#eea505ff"><path class="cls-3" d="M469.84,262.32h.66c-.57,23.26.32,46.54-.2,69.8,0,10.67.15,21.34.12,32h-1.18c.16-13.32-.11-26.65.65-40C469.8,303.56,470.32,282.93,469.84,262.32Z"/><path class="cls-3" d="M459.47,364.86c-2.38-33.55-5.1-67.08-7.46-100.63,3.21,33,6.6,66,9.57,99C462.16,364.92,460.5,364.66,459.47,364.86Z"/><path class="cls-3" d="M485.88,282.06c.61-5.6,1.46-11.19,1.3-16.84a65.06,65.06,0,0,1-.47,12.86c-2.17,28.94-4.26,57.88-6.56,86.81l-2-.75C480.32,336.76,483.48,309.43,485.88,282.06Z"/><path class="cls-3" d="M505.4,265.31c-4.55,31.5-10.52,62.79-15.51,94.23-.38,2.35-.74,4.79-2,6.85.23-5.81,1.78-11.45,2.67-17.18C495.42,321.23,500.84,293.34,505.4,265.31Z"/><path class="cls-3" d="M442.67,317c-2.5-16-5.78-31.82-7.74-47.85,5.29,31.69,11.31,63.26,16.88,94.9a4.88,4.88,0,0,1-.48,2.68C447.9,350.29,445.64,333.58,442.67,317Z"/><path class="cls-3" d="M522.44,271.33c-4,18.45-9.13,36.64-13.59,55-3.54,13.67-6.79,27.42-10.47,41.05q-3,.66-1.7-2.16C505.18,333.89,514.16,302.7,522.44,271.33Z"/><path class="cls-3" d="M417.85,274.11c8.48,31.34,17.43,62.56,25.8,93.93l-2.38-.08C433.65,336.63,425.2,305.5,417.85,274.11Z"/><path class="cls-3" d="M401.7,281.12c1.16,2.37,1.82,4.36,2.83,6.71,1.41,4.59,2.78,8.64,4.25,12.93q12.09,33.06,24.17,66.11c.54,1.49,1,3,1.4,4.56a5.56,5.56,0,0,1-2-2.7q-13.95-39.64-28-79.28A42.24,42.24,0,0,1,401.7,281.12Z"/><path class="cls-3" d="M537.51,282.19c-9.17,27.78-19.46,55.2-29,82.87-.71,2-1.34,4.16-3,5.63,3-10.45,7.35-20.49,10.9-30.77C523.46,320.68,530.56,301.46,537.51,282.19Z"/><path class="cls-3" d="M514.52,371.1q20.58-43.44,41.15-86.89c-13,30.12-26.7,60-40,90C514.32,373.42,513.35,372.5,514.52,371.1Z"/><path class="cls-3" d="M404,329.76c-6-13.88-12.71-27.47-18.22-41.55,10,21.53,20.29,42.92,30.41,64.39,3.25,7.2,7.07,14.17,10,21.53l-1.74.85C417.25,360.07,410.84,344.8,404,329.76Z"/><path class="cls-3" d="M524.74,373.2c15.35-26.29,30.37-52.77,45.78-79C556,320.49,541,346.56,526.4,372.84a25.9,25.9,0,0,1-3.85,5.54A20.89,20.89,0,0,1,524.74,373.2Z"/><path class="cls-3" d="M371.79,299.23c14.54,25.06,29,50.21,43.51,75.28a35.47,35.47,0,0,1,2.36,5,13.26,13.26,0,0,1-3.65-4.71C400.08,349.52,385.48,324.62,371.79,299.23Z"/><path class="cls-3" d="M529.88,381.75c18.69-26.11,37-52.46,55.75-78.56C568,330,549.75,356.31,532,383Z"/><path class="cls-3" d="M355.68,306.24c18.3,25.62,36.41,51.38,54.62,77.07l-2.22,1C390.75,358.19,372.83,332.46,355.68,306.24Z"/><path class="cls-3" d="M541.6,383.09c18.75-22.21,37.26-44.64,56.09-66.79-18.5,23.12-37.54,45.8-56.15,68.84a11.81,11.81,0,0,1-3.91,3.32A45.1,45.1,0,0,1,541.6,383.09Z"/><path class="cls-3" d="M344.63,320.27c14.32,17,28.53,34.06,42.81,51.07,5,6.32,10.78,12,15.14,18.78a13.3,13.3,0,0,1-4.19-3.78C380.6,364.21,362.19,342.57,344.63,320.27Z"/><path class="cls-3" d="M326.67,326.5q33.85,33.47,67.67,67c1.38.85.94,2.33.49,3.6-12.89-12.81-25.29-26.11-38-39.11C346.82,347.45,336.51,337.19,326.67,326.5Z"/><path class="cls-3" d="M544.66,393.17c22-21.66,43.76-43.56,65.86-65.1-21.31,22.53-42.94,44.77-64.57,67Z"/><path class="cls-3" d="M554.38,397.86c21.81-18.19,43.45-36.58,65.26-54.76-20.63,18.42-41.94,36.08-62.76,54.29a28.45,28.45,0,0,1-5.74,4.13A16,16,0,0,1,554.38,397.86Z"/><path class="cls-3" d="M320.85,345.17c21.47,17.42,42.34,35.56,63.64,53.18a22.48,22.48,0,0,1,5,5.11,25.26,25.26,0,0,1-4.31-2.91C363.76,382,342.19,363.73,320.85,345.17Z"/><path class="cls-3" d="M556.74,407.44c26.6-18.43,53.16-36.94,79.85-55.25C619,365.25,601.15,378,583.46,390.91c-8.43,5.91-16.5,12.39-25.14,18Z"/><path class="cls-3" d="M306.8,356.18c25.83,17.43,51.26,35.45,76.95,53.08l-1.2,2C357.3,392.92,332,374.68,306.8,356.18Z"/><path class="cls-3" d="M569.1,411.66c24.53-14.08,48.95-28.35,73.52-42.36-24.46,14.92-49.31,29.21-73.87,44a35.83,35.83,0,0,1-6.6,3.33C564,414.3,566.63,413.07,569.1,411.66Z"/><path class="cls-3" d="M300.75,373.15c11.07,5.67,21.6,12.36,32.47,18.43,14.16,8.16,28.28,16.38,42.47,24.48a8.14,8.14,0,0,1,3,2.85c-10.81-5.58-21-12.31-31.57-18.34C331.64,391.44,316.23,382.23,300.75,373.15Z"/><path class="cls-3" d="M638.67,390.28c4.63-2.07,9.16-4.42,14-6.08-28.45,13.59-56.72,27.58-85.13,41.27-.1-.51-.31-1.52-.41-2,2.38-1.76,5.23-2.71,7.89-4Q606.84,404.9,638.67,390.28Z"/><path class="cls-3" d="M285.84,385.2c28.33,12.35,56.21,25.75,84.42,38.41,1.73.95,4.62,1.37,3.72,4.16C344.45,413.91,315.33,399.16,285.84,385.2Z"/><path class="cls-3" d="M642,406.59c5.2-1.79,10.27-4,15.62-5.37-25.39,9.32-50.65,19-76,28.41-3.77,1.33-7.4,3.26-11.44,3.57,3.16-2.05,6.82-3.05,10.31-4.34Q611.21,417.75,642,406.59Z"/><path class="cls-3" d="M282.92,403.6c1.45-.08,2.91-.2,4.36-.33l-.94,1.13c26.62,9.27,53,19.22,79.56,28.63a11.41,11.41,0,0,1,5.08,2.85,65.94,65.94,0,0,1-9.15-3.06Q328.77,420.39,295.68,408C291.49,406.33,287.19,405,282.92,403.6Z"/><path class="cls-3" d="M573.86,440.69c31.62-8,63.1-16.6,94.78-24.36-31.54,8.72-62.94,17.94-94.48,26.64C574.08,442.4,573.93,441.26,573.86,440.69Z"/><path class="cls-3" d="M274.74,419.33c18.44,4.18,36.64,9.41,55,14,12.81,3.36,25.66,6.59,38.45,10a2.12,2.12,0,0,1-3.24,1.43C334.85,436.39,304.86,427.6,274.74,419.33Z"/><path class="cls-3" d="M653.59,437.08c5.7-.81,11.3-2.28,17-2.68-24.31,4.21-48.55,8.89-72.83,13.3-7.48,1.18-14.86,3.16-22.42,3.77a9,9,0,0,1,3.86-1.58C604,445.66,628.81,441.33,653.59,437.08Z"/><path class="cls-3" d="M267.74,436.45c7.49.56,14.84,2.25,22.24,3.46q36.43,6.27,72.86,12.57a7.1,7.1,0,0,1,3.51,1.57c-12.69-1.65-25.2-4.53-37.82-6.67C308.25,443.83,288.09,439.54,267.74,436.45Z"/><path class="cls-3" d="M656.72,453.17a79.29,79.29,0,0,1,14-.58c-14,.68-28,2.67-42,3.87q-25.56,2.55-51.12,5.11l-.2-2.3Q617.09,456.23,656.72,453.17Z"/><path class="cls-3" d="M266.81,454.59a87.59,87.59,0,0,1,12.84.7c28.27,2.06,56.51,4.4,84.78,6.46,0,.58.08,1.75.11,2.33-26.3-2.51-52.58-5.26-78.87-7.83C279.37,455.81,273.14,454.64,266.81,454.59Z"/><path class="cls-3" d="M577.17,469.65a59.45,59.45,0,0,1,9.53-.36c28,.2,56-.19,84,.38-18,.22-36,.23-54,.29-11.34.59-22.7.27-34.05.51A11.66,11.66,0,0,1,577.17,469.65Z"/><path class="cls-3" d="M269.62,472.64c18.34-.3,36.69-.23,55-.33,13.16-.61,26.34-.28,39.51-.52v1.26C332.65,472.72,301.13,473.15,269.62,472.64Z"/><path class="cls-3" d="M577.69,478.19c32.3,3,64.56,6.59,96.86,9.52-6.36.24-12.62-1.15-19-1.24-25.9-1.94-51.79-4.07-77.69-5.93Z"/><path class="cls-3" d="M271.59,489.71c31.07-2.42,62-6.14,93.07-9,0,.57.09,1.72.11,2.3q-39,3-78.1,6C281.65,489.43,276.63,490.08,271.59,489.71Z"/><path class="cls-3" d="M576,488.2c17.59,2.62,35,6.36,52.55,9.42,15.38,2.67,30.65,6,46.11,8.23-8.39-.74-16.64-2.57-24.94-3.94-23.42-4-46.82-8.11-70.25-12.11A6.81,6.81,0,0,1,576,488.2Z"/><path class="cls-3" d="M348.79,493.77c5.77-.91,11.46-2.43,17.29-3l.27.79c-15.46,3.15-31.11,5.43-46.64,8.26-16,2.63-31.95,5.81-48,8.09C297.42,503.34,323.09,498.47,348.79,493.77Z"/><path class="cls-3" d="M574.37,496.77c31.18,8.41,62.13,17.74,93.31,26.19-18.77-4.22-37.28-9.57-55.95-14.23-12.26-3.32-24.68-6.12-36.84-9.74Z"/><path class="cls-3" d="M276.64,525c30.58-8.19,60.91-17.34,91.45-25.67.08.57.23,1.71.31,2.28-23.3,6-46.56,12.06-69.84,18.07C291.24,521.37,284.09,523.83,276.64,525Z"/><path class="cls-3" d="M571.31,506.39c4.91,1.18,9.51,3.33,14.27,5,24.7,9.16,49.29,18.68,74.08,27.62-12-3.55-23.6-8.41-35.44-12.48l-44-16C577.18,509.32,573.59,508.9,571.31,506.39Z"/><path class="cls-3" d="M368.35,509.79a17.08,17.08,0,0,1,3.77-.63c-3.17,1.91-6.76,2.94-10.22,4.21q-31.12,11.26-62.25,22.55c-4.95,1.73-9.77,3.85-14.88,5.07C312.71,530.81,340.45,520.09,368.35,509.79Z"/><path class="cls-3" d="M568.7,514.74c25.88,12.07,51.4,25,77.17,37.29,2.63,1.31,6.43,1.12,7.72,4.31-24.17-11.74-48.81-22.53-73.18-33.87-4.12-2.06-8.57-3.51-12.45-6Z"/><path class="cls-3" d="M289.74,558.08c28.4-13.7,56.68-27.67,85.12-41.29l.24,2.07c-2.35,1.71-5.15,2.64-7.76,3.89L307.05,550.4C301.26,552.93,295.67,555.89,289.74,558.08Z"/><path class="cls-3" d="M563.57,523.38c5.15,2.26,9.76,5.56,14.66,8.3,21.42,12.81,43.07,25.26,64.35,38.29-25.4-14.45-50.62-29.25-76-43.75A8.29,8.29,0,0,1,563.57,523.38Z"/><path class="cls-3" d="M374.71,528.29a25.32,25.32,0,0,1,5.48-2.56,19.66,19.66,0,0,1-5.11,3.8c-24.19,13.71-48.06,28-72.36,41.52C326.64,556.67,350.76,542.62,374.71,528.29Z"/><path class="cls-3" d="M559.74,531c25.29,18.41,50.66,36.7,75.89,55.2-25.91-17.44-51.37-35.53-77.13-53.19Z"/><path class="cls-3" d="M362.26,548.85c7.43-5.12,14.36-11,22.1-15.64l.75,1.76c-25.32,17.9-50.95,35.41-76.46,53.06C326.27,574.65,344.43,562,362.26,548.85Z"/><path class="cls-3" d="M552.65,539a12.19,12.19,0,0,1,4.12,2.39c21.86,19,43.91,37.68,65.76,56.64-16.34-13.16-32.18-27-48.32-40.37C567.09,551.4,559.29,545.83,552.65,539Z"/><path class="cls-3" d="M382.6,547.32c2.73-2.33,5.29-4.93,8.5-6.61-1.82,3-4.8,4.94-7.41,7.17q-26.18,22-52.36,44c-4.15,3.46-8.16,7.11-12.53,10.3Q350.68,574.73,382.6,547.32Z"/><path class="cls-3" d="M546.83,547.38l.71-2.16c15.09,15.26,29.84,30.86,44.8,46.25,7.1,7.53,14.56,14.73,21.42,22.47-15.61-15.36-31.12-30.83-46.71-46.22C560.39,560.86,553.22,554.47,546.83,547.38Z"/><path class="cls-3" d="M396,547.37l1.79,1.3c-12.69,13.14-25.93,25.75-38.82,38.71-6.65,6.36-12.88,13.16-19.78,19.24,7.37-8.55,15.63-16.31,23.33-24.56Q379.27,564.72,396,547.37Z"/><path class="cls-3" d="M539.71,552.07A16.79,16.79,0,0,1,543.9,556c17.79,22.1,36.14,43.75,53.74,66-15.14-17.87-30.1-35.9-45.17-53.83C548.3,562.73,543.16,558,539.71,552.07Z"/><path class="cls-3" d="M403.08,554.22l1.42.35c-20.36,24.1-40.37,48.5-60.9,72.45C363.34,602.68,383.36,578.57,403.08,554.22Z"/><path class="cls-3" d="M531.82,558.64c1.27-.18,2.82-.7,3.36.91C552.92,586,571,612.3,588.55,638.88,569.61,612.16,550.59,585.48,531.82,558.64Z"/><path class="cls-3" d="M410.25,559.27l2.09,1.28c-18.64,26.07-37,52.35-55.62,78.41C374.3,612.22,392.54,585.92,410.25,559.27Z"/><path class="cls-3" d="M524.65,562.71a14.29,14.29,0,0,1,2.85,3.48c13.94,25,28.16,49.91,42,75C558,622,547.13,602.41,535.83,583.1,532.19,576.26,527.53,569.92,524.65,562.71Z"/><path class="cls-3" d="M416.63,568.07a25.25,25.25,0,0,1,3-4.22,20.78,20.78,0,0,1-2.51,5.83c-14.93,25.4-29.26,51.15-44.37,76.43C387.35,620.06,402.07,594.11,416.63,568.07Z"/><path class="cls-3" d="M515.83,568c1.53-.8,2.52-.46,3,1,7.87,17.46,15.63,35,23.47,52.47,4.71,10.87,9.94,21.53,14.3,32.55Q536.22,611,515.83,568Z"/><path class="cls-3" d="M387.84,655.16c12.61-29,25.79-57.84,38.63-86.79l2.14.92C415,597.9,401.58,626.61,387.84,655.16Z"/><path class="cls-3" d="M507.92,570.79a6.54,6.54,0,0,1,2,2.85Q521,605,532.07,636.3c2.78,8.27,6.09,16.36,8.42,24.78-8-22.71-16.48-45.24-24.68-67.88C513.24,585.71,510.06,578.42,507.92,570.79Z"/><path class="cls-3" d="M433.47,577.88c.83-2.21,1.3-4.74,3.23-6.3-3.38,11.42-8.07,22.43-12,33.7-7.31,19.91-14.5,39.87-21.9,59.76C412.86,635.93,423.34,607,433.47,577.88Z"/><path class="cls-3" d="M498.82,574.69l1.9-1.06C508.4,603.78,516,634,523.61,664.1c.44,2.29,2,4.34,1.7,6.76-1.51-2-1.3-4.64-2-7q-9.94-35.77-19.8-71.58C502,586.43,499.94,580.66,498.82,574.69Z"/><path class="cls-3" d="M443.87,575l2.29-.31c-8.62,31.83-17.52,63.6-26.3,95.39,5-21,10.56-42,15.77-62.93C438.43,596.46,440.87,585.66,443.87,575Z"/><path class="cls-3" d="M452,585.07c.54-3.11.74-6.39,2.32-9.2a35.32,35.32,0,0,1-.42,5.22q-6.37,35.05-12.63,70.12c-1,6.65-2.63,13.21-3.33,19.92a75.86,75.86,0,0,1,1.64-12.1C443.67,634.37,447.89,609.73,452,585.07Z"/><path class="cls-3" d="M490.11,576.48l1.2-.31c5.33,32.32,11.15,64.57,16.12,96.94C501.76,640.88,495.92,608.68,490.11,576.48Z"/><path class="cls-3" d="M480.92,583.21c-.09-2.24-1.12-5.19,1.43-6.44,1,5.1,1,10.32,1.49,15.48,2.21,28.62,4.22,57.25,6.5,85.87C486.92,646.51,484.19,614.83,480.92,583.21Z"/><path class="cls-3" d="M462,577.76l2.3,0c-2.42,25.59-5,51.17-7.44,76.76-.38,7.21-2,14.31-1.68,21.56-.79-7,.87-14,1-21C458.09,629.36,460.1,603.56,462,577.76Z"/><path class="cls-3" d="M471.78,578l1.24,0c-.29,33-.65,66-.85,99C471.69,644.09,472.07,611.07,471.78,578Z"/><path class="cls-3" d="M332.65,613.32a50.62,50.62,0,0,1,6.17-6.42A39.05,39.05,0,0,1,332.65,613.32Z"/></g><g id="_383645ff" data-name="#383645ff"><path class="cls-4" d="M298.92,572.2c1.59-.86,2.12,1.61.53,1.91C297.86,575,297.32,572.48,298.92,572.2Z"/></g></g></g></svg>